/* XPM */
static char *result[] = {
/* columns rows colors chars-per-pixel */
"64 64 167 2 ",
"   c #000001",
".  c #000009",
"X  c #001303",
"o  c #001A05",
"O  c #000C12",
"+  c #001312",
"@  c #001C14",
"#  c #2E0000",
"$  c #320101",
"%  c #380500",
"&  c #380A00",
"*  c #351805",
"=  c #002207",
"-  c #382306",
";  c #352408",
":  c #2D2414",
">  c #302313",
",  c #5E1A04",
"<  c #620000",
"1  c #730000",
"2  c #7A0000",
"3  c #5F2607",
"4  c #5F2F0E",
"5  c #5E3316",
"6  c #602607",
"7  c #672A00",
"8  c #602F0F",
"9  c #67370D",
"0  c #7D3200",
"q  c #623D20",
"w  c #7D4612",
"e  c #734C29",
"r  c #7C4F2A",
"t  c #78502C",
"y  c #830000",
"u  c #890000",
"i  c #9A0300",
"p  c #891207",
"a  c #921902",
"s  c #A41701",
"d  c #BF1B01",
"f  c #9A2B08",
"g  c #833500",
"h  c #8C3B01",
"j  c #903F03",
"k  c #893118",
"l  c #A53C0E",
"z  c #B6350A",
"x  c #C70000",
"c  c #C80200",
"v  c #CA0F00",
"b  c #C91300",
"n  c #C51D02",
"m  c #C91E01",
"M  c #F80400",
"N  c #F81300",
"B  c #F81C00",
"V  c #C32203",
"C  c #CC2603",
"Z  c #C32B06",
"A  c #D32A04",
"S  c #DB2903",
"D  c #C53108",
"F  c #C63411",
"G  c #ED2500",
"H  c #E02903",
"J  c #F32300",
"K  c #F92400",
"L  c #F42D00",
"P  c #F92C00",
"I  c #E33307",
"U  c #ED3407",
"Y  c #E33408",
"T  c #F43405",
"R  c #F93504",
"E  c #FC3907",
"W  c #F83708",
"Q  c #F63808",
"!  c #FB3A09",
"~  c #F83E10",
"^  c #8F4005",
"/  c #8F460D",
"(  c #834713",
")  c #824B14",
"_  c #8C4B14",
"`  c #964711",
"'  c #9D4612",
"]  c #934A13",
"[  c #9D4F1B",
"{  c #A6410F",
"}  c #A04909",
"|  c #A64110",
" . c #A05317",
".. c #AA5012",
"X. c #AA5518",
"o. c #B95217",
"O. c #894523",
"+. c #83552E",
"@. c #89552D",
"#. c #89592F",
"$. c #92582C",
"%. c #9A592B",
"&. c #835830",
"*. c #A65925",
"=. c #A55C29",
"-. c #B95F22",
";. c #9A6033",
":. c #B86024",
">. c #A46434",
",. c #B66A34",
"<. c #BF763E",
"1. c #C65F17",
"2. c #ED4417",
"3. c #FC4313",
"4. c #F84718",
"5. c #F74A1B",
"6. c #FA491A",
"7. c #FF501D",
"8. c #CD6217",
"9. c #C6641D",
"0. c #CA641C",
"q. c #CF6A1F",
"w. c #D2651A",
"e. c #D26A1F",
"r. c #DA6B1E",
"t. c #E26F1F",
"y. c #C65025",
"u. c #F85523",
"i. c #FB5A27",
"p. c #CA6420",
"a. c #DA6D20",
"s. c #C66633",
"d. c #C4763D",
"f. c #C3783F",
"g. c #ED622E",
"h. c #F9632D",
"j. c #E57222",
"k. c #E97322",
"l. c #F47925",
"z. c #E5FEE1",
"x. c #F86730",
"c. c #F76A33",
"v. c #FA6C33",
"b. c #ED7A3E",
"n. c #F97C3E",
"m. c #C77B41",
"M. c #CA7D42",
"N. c #F87F40",
"B. c #E5FEE1",
"V. c #E5FEE1",
"C. c #FF882B",
"Z. c #C88044",
"A. c #D38144",
"S. c #DB8747",
"D. c #E28A48",
"F. c #ED8B49",
"G. c #F98343",
"H. c #F88A47",
"J. c #F88C49",
"K. c #ED924D",
"L. c #F4954E",
"P. c #F8944D",
"I. c #F89750",
"U. c #F69850",
"Y. c #FA9A51",
"T. c #FDA256",
"R. c #FAA659",
/* pixels */
"z.z.z.z.z.z.z.z.B.z.z.z.z.z.z.z.z.B.z.z.z.z.z.z.z.z.z.z.z.z.z.z.z.z.z.z.z.z.z.z.z.z.z.z.z.z.z.z.z.z.z.B.z.z.V.z.z.z.z.z.z.z.z.z.",
"z.z.z.z.z.z.z.z.z.z.z.z.z.z.z.B.z.z.z.z.z.z.z.z.z.B.z.z.z.z.z.z.z.z.z.B.z.z.z.B.z.z.z.z.z.z.z.z.z.z.z.z.z.z.z.z.z.z.z.z.z.z.z.z.",
"z.z.z.z.B.z.z.z.z.z.z.B.z.z.z.z.z.z.z.z.z.z.z.z.z.z.z.z.z.z.B.l.z.B.B.B.z.z.z.z.z.z.z.z.z.z.z.z.z.z.z.z.z.z.z.B.z.z.z.z.z.z.z.z.",
"z.z.z.B.z.z.z.z.z.z.z.z.z.z.z.z.z.z.z.B.z.B.z.B.z.V.V.V.C.B.B.V.B.B.B.B.z.V.B.V.z.z.z.z.z.z.z.B.z.z.z.z.z.z.z.z.z.z.z.z.z.z.z.z.",
"z.z.z.z.B.z.z.z.z.z.z.z.z.z.z.z.z.z.z.z.z.B.B.B.V.V.V.V.V.V.V.V.C.B.B.C.C.V.V.V.B.z.z.z.z.B.z.z.B.z.z.z.z.z.z.z.z.z.z.z.z.z.z.z.",
"z.z.z.z.z.z.z.z.z.B.z.z.B.z.z.z.z.z.z.z.B.B.B.B.z.V.V.V.V.V.V.V.B.C.B.B.B.V.V.V.B.z.z.V.z.z.z.z.z.z.z.B.z.z.z.z.z.z.z.z.z.V.z.z.",
"z.z.z.z.z.z.z.B.z.z.z.z.z.B.z.z.B.B.z.z.B.B.z.l.l.l.l.l.l.l.l.l.l.l.l.l.l.l.l.l.z.z.B.z.z.z.B.z.z.z.z.z.z.B.z.z.z.z.z.z.z.z.z.z.",
"B.z.z.z.z.z.z.z.z.z.z.z.z.z.z.B.B.B.B.B.C.B.z.l.j.a.p.p.p.p.q.q.q.q.p.9.p.p.a.j.l.B.B.C.B.B.B.B.B.z.z.z.z.z.z.z.z.z.z.z.z.z.z.z.",
"z.z.z.z.z.z.z.z.z.z.z.z.B.z.z.V.B.C.B.C.C.C.z.k.9. .( ) ( ] _ ] _ _ ] ( w (  .9.k.C.C.C.C.B.B.B.V.z.z.z.z.z.z.z.z.z.z.z.z.z.z.z.",
"z.z.z.z.z.z.z.z.B.z.z.z.z.z.z.z.B.C.C.B.C.C.z.a.X.9 X   o ; - - - - - o   X 9 X.a.l.B.C.C.C.C.B.z.z.z.z.z.z.z.z.z.z.z.z.z.z.z.z.",
"z.z.z.z.z.z.z.z.z.z.z.B.z.z.z.z.l.l.l.l.l.l.k.0.' ,       # $ # $ $ #       , ' 0.k.l.B.l.l.l.l.z.z.z.z.z.z.z.z.z.z.V.z.z.z.z.z.",
"z.z.z.z.z.z.z.V.z.z.z.B.B.V.z.l.t.a.p.0.e.e.0.o.l a y y y u u u u u u y y y a { o.9.e.e.0.0.e.j.l.z.V.V.V.z.z.z.z.z.z.z.z.z.z.z.",
"z.z.z.z.z.z.z.z.z.z.z.V.C.C.B.j.9. .( w ) _ ] | z Z n v c x x c x x x c v m Z z { ` _ ) w (  .9.j.B.C.C.V.z.z.z.z.z.z.z.z.z.z.z.",
"z.z.z.V.z.z.z.z.z.z.z.V.C.B.z.a.X.9 X   o = 3 f D Y T R L L G G G G G P R T I Z f 6 = o   X 9 X.a.l.B.C.V.z.z.z.z.z.z.z.z.z.z.z.",
"z.z.z.z.z.z.z.z.z.z.z.z.z.z.j.0.' ,         < s A R E 3.3.6.6.6.6.6.6.3.3.! ! A s <         , ' 0.j.z.B.z.z.z.z.z.z.z.z.V.z.z.z.",
"z.z.z.z.z.z.z.z.z.V.z.l.j.a.1.o.l a y 2 1 2 i b S R 3.7.i.x.v.v.v.v.h.i.6.3.R H d i 2 1 2 y a l o.0.a.j.l.z.z.V.z.z.z.z.z.z.z.z.",
"z.z.z.z.z.z.z.V.B.B.l.j.9.X.' l z Z m n n V C S G P 3.i.v.n.G.G.G.G.N.v.i.3.P G S C V V m n Z z l ' X.p.j.l.B.B.B.B.z.z.z.z.z.z.",
"z.z.z.z.z.z.z.V.B.B.l.a. .9 , a Z I T R U U U L K P 5.h.n.J.L.U.Y.P.J.n.x.4.P K L U U Q T T I Z a , 9  .e.l.C.B.B.B.z.z.z.z.z.z.",
"z.z.z.z.z.z.z.z.B.C.l.0.) X   y n T E 3.! E E R K K 6.c.G.P.T.R.R.Y.U.G.c.6.P K R E E ! E ! T n y   X ( 0.l.B.C.B.z.z.z.z.z.z.z.",
"z.z.z.z.z.z.z.V.C.C.l.0.w     2 n T ! ! ! E E P K P 5.c.H.Y.T.R.R.R.Y.G.c.5.K K P E E E 3.! T n 1     w q.l.V.V.C.z.z.z.z.z.z.z.",
"z.z.z.z.z.z.z.V.C.C.l.q.) o   1 n T 3.! ! ! E R K K 5.c.G.U.R.R.R.R.U.H.c.5.P B P E E E 3.E T n 1   o ) p.B.C.C.V.B.z.z.z.z.z.z.",
"z.z.z.z.z.z.z.V.C.C.z.q._ =   2 Z U E ! ! ! E P K P 5.c.G.U.U.R.R.Y.U.G.c.6.P K R E E E ! E U Z 2   = _ q.B.C.C.B.B.z.z.B.z.z.z.",
"z.z.z.z.z.z.z.z.B.z.k.0.` 3 < i C U ! ! E W R R K P 4.x.N.J.U.U.U.U.H.N.h.3.P K R W W E ! ! U C i < 3 ` 9.k.l.B.B.B.B.z.z.z.z.z.",
"z.z.z.z.V.z.z.l.j.a.0.o.{ f s d S T ! ! W R R R P P 2.i.c.N.G.G.G.N.N.c.i.2.P P R W W E ! W Q S n s f | o.0.a.k.l.z.B.B.B.B.z.z.",
"z.z.z.V.B.B.l.j.9.X.' l z Z A I U Q W W ! W ! ! R R ~ 5.u.x.c.c.c.c.h.i.5.~ T R ! Q ! Q ! ! T U I A Z z l ' X.9.a.z.z.B.B.B.z.z.",
"z.z.z.V.C.B.l.a. .9 , a Z I T W T Q ! ! W W Q W R T Q 3.3.4.5.5.5.5.3.2.3.Q R R W W Q ! R ! ! R T Q I Z a , 9  .p.l.C.B.B.B.z.z.",
"z.z.z.z.C.B.l.p.( X   y C T E E E T ! T Q W W Q ! Q Q R T P K P K K P R R ! W W W W ! T Q Q ! E ! ! T V y   o ( p.l.C.B.B.z.z.z.",
"z.z.z.V.B.C.l.0.w     y b P E R R P R R R Q ! ! Q ! R R P K K K K K K P R T ~ ! ! W T R R P P R R R P b y     w q.l.B.C.B.z.z.z.",
"z.z.z.V.V.V.l.q._ o   y c J P K K K K P R T W ! W W ! R R R P P P P R R R T ! Q ! ! Q R P K K K K P K c u   o _ p.l.B.V.B.B.z.z.",
"z.z.z.V.V.V.l.p._ ; # u b G P P P K P P R T W W W W W W T R ! R ! T R Q T ! W W ! W Q R P P P P P P G v u # ; _ p.l.V.V.V.B.z.z.",
"z.z.z.z.V.V.l.p.] - $ p F 2.6.6.6.6.4.3.! ! Q T ! T R T R T ! T Q ! T ! ! R ! T T R Q ~ 3.6.6.6.6.6.2.F p $ - _ p.l.B.C.V.z.z.z.",
"z.z.z.V.C.z.l.p._ * $ k y.g.v.v.v.v.h.i.5.W P P P R R P R P P R R P P R P P R P K P R 5.i.h.v.v.v.v.g.y.k $ * / e.l.V.V.V.z.B.z.",
"z.z.B.B.C.B.l.w.^ * * O.s.b.G.H.H.G.n.c.u.T N M B J K K K K K K K K K J K K K B M N T u.c.N.G.G.G.G.N.s.O.* * / 0.l.B.C.B.z.z.z.",
"z.z.B.B.B.B.l.0.j & : @.d.F.Y.Y.Y.P.J.n.h.~ N M B K P K P K P K K P P P P K L B M N ~ i.N.J.P.Y.Y.Y.F.m.@.> % h w.l.B.B.B.B.z.z.",
"z.z.z.B.C.B.l.8.j $ : #.M.L.T.T.T.Y.U.G.c.u.~ Q 2.6.5.5.5.5.5.4.5.4.5.4.4.6.4.2.~ ~ u.v.N.I.Y.R.R.Y.K.m.#.: $ h 0.l.B.C.B.z.z.B.",
"z.B.z.z.C.B.l.0.h   @ &.Z.L.T.R.R.T.U.J.G.c.h.h.h.x.x.x.x.x.x.c.x.x.x.x.x.x.h.h.h.x.v.N.J.I.R.T.R.R.L.M.#.@   h 1.l.B.C.B.z.z.z.",
"z.z.z.B.C.B.l.1.g   O &.M.U.T.T.T.Y.Y.P.H.G.N.N.N.N.N.N.C.N.N.N.G.n.G.G.G.G.N.N.C.N.G.H.P.U.Y.T.R.T.U.M.t +   g 1.l.V.V.B.z.z.z.",
"z.z.B.B.C.B.l.1.g   + +.M.L.T.T.Y.Y.I.L.P.L.P.J.P.P.P.P.P.P.L.L.P.P.P.P.P.J.P.P.P.L.L.L.P.U.U.Y.T.T.L.m.&.+ . g 0.l.V.V.V.B.z.B.",
"z.z.B.B.C.B.l.w.} 7 5 $.d.D.L.L.Y.I.Y.Y.U.R.R.U.R.Y.Y.Y.U.U.Y.Y.U.U.U.U.U.U.U.Y.U.U.Y.Y.Y.Y.U.U.I.I.F.d.$.5 7 } w.l.V.V.V.z.z.z.",
"z.z.B.B.B.B.l.j.1...[ =.,.f.A.D.K.L.Y.Y.Y.Y.U.Y.U.Y.Y.Y.T.U.T.Y.U.T.U.R.Y.R.Y.Y.T.U.T.Y.Y.Y.L.K.D.M.m.,.=.[ ..1.j.l.V.V.z.z.z.z.",
"B.z.z.B.V.z.z.l.t.r.0.-.*.%.>.<.S.L.Y.Y.Y.Y.Y.Y.Y.U.Y.U.Y.Y.U.Y.U.U.Y.U.U.Y.Y.Y.Y.Y.Y.Y.Y.Y.P.S.d.>.%.*.-.0.r.t.l.z.B.B.B.z.z.z.",
"z.z.z.z.z.z.z.z.z.z.k.0.` 4 q ;.M.K.Y.Y.Y.Y.Y.Y.U.Y.U.Y.Y.U.Y.U.U.Y.Y.Y.P.Y.U.U.U.U.Y.Y.Y.Y.K.A.;.q 8 ` 0.k.z.z.z.z.z.z.B.z.z.z.",
"z.z.z.B.z.z.z.V.C.C.l.w.h   . r d.K.Y.Y.Y.Y.Y.U.P.U.P.Y.P.U.Y.Y.U.Y.U.U.U.Y.U.P.Y.Y.Y.Y.Y.T.K.f.r .   h 0.z.C.C.B.B.z.z.z.z.z.z.",
"z.z.z.z.z.z.z.V.C.V.z.8.g     e d.K.T.T.Y.Y.Y.Y.Y.Y.U.U.U.Y.P.U.Y.U.U.U.P.Y.U.Y.Y.Y.Y.Y.T.T.K.f.e     g w.l.C.C.B.B.z.z.z.z.z.B.",
"B.z.z.z.z.z.z.B.C.B.l.8.0   . r M.L.T.T.T.Y.Y.T.Y.Y.P.Y.U.Y.Y.Y.U.Y.P.U.U.U.Y.Y.Y.Y.T.T.T.T.U.f.r .   0 0.l.B.C.B.z.z.z.z.z.z.B.",
"z.z.z.z.z.z.B.V.C.B.l.0.g   + +.M.L.T.T.T.Y.Y.Y.Y.Y.U.U.Y.U.P.U.U.P.Y.Y.U.Y.Y.U.Y.Y.Y.T.T.T.P.Z.+.+   g 1.l.C.B.V.z.z.z.z.z.z.z.",
"z.z.z.z.z.z.z.V.C.B.l.w.} 7 5 $.d.D.L.L.K.K.L.L.L.U.Y.Y.Y.P.Y.Y.Y.Y.P.Y.Y.Y.Y.P.L.K.K.K.P.U.D.f.$.5 7 } w.l.V.V.V.z.z.z.z.z.z.z.",
"z.z.z.z.z.z.z.z.B.B.l.j.1...[ =.,.d.M.m.f.m.M.S.K.Y.Y.Y.Y.Y.Y.Y.Y.Y.Y.Y.Y.Y.U.K.S.A.f.f.f.f.d.,.=.[ ..1.j.l.V.V.B.z.z.B.z.z.z.z.",
"z.z.z.V.z.z.z.B.V.z.z.k.k.a.p.-.=.@.+.t e r ;.d.S.Y.T.T.T.Y.T.Y.Y.Y.Y.T.T.Y.U.D.<.;.r e t +.$.=.:.p.r.k.l.l.B.B.B.B.z.z.z.z.z.B.",
"z.z.z.z.z.z.z.z.z.z.z.z.B.z.j.p.[ 5 + .   . q >.A.L.Y.T.Y.Y.Y.Y.Y.T.Y.Y.T.T.L.A.>.q .   . O 5 [ p.k.l.z.B.B.B.B.B.B.z.z.z.z.z.z.",
"z.z.z.z.z.z.z.z.z.z.z.V.C.C.z.a...7         8 %.f.D.L.P.L.K.K.K.L.K.L.L.L.L.D.d.%.4         7 ..r.l.C.C.B.B.z.z.B.z.z.z.z.z.z.z.",
"z.z.z.z.z.z.z.z.z.z.B.V.C.B.z.j.8.} g 0 g h ` *.,.f.M.M.m.m.m.m.f.f.f.M.M.M.d.,.*.` h g 0 g } 1.k.z.C.C.B.B.z.z.z.z.z.B.z.z.z.z.",
"z.z.z.z.z.z.z.z.z.z.B.B.B.B.B.l.t.w.8.8.w.w.9.-.=.$.+.+.+.@.$.@.$.#.#.+.+.+.$.=.-.0.8.w.0.1.w.j.l.z.B.V.B.B.z.z.z.z.B.z.B.z.z.z.",
"z.z.z.z.z.z.z.z.B.z.z.z.z.B.B.l.l.l.l.l.z.l.k.p.[ 5 + O @ : > > > > : @ O + 5 [ 0.k.z.l.l.l.l.z.z.z.z.z.B.B.z.B.z.z.z.z.z.z.z.z.",
"z.z.z.z.z.z.z.V.z.z.z.z.B.z.B.B.B.C.B.B.B.C.z.a...7       $ % % % % $       7 ..r.l.C.C.V.V.V.V.z.z.z.z.B.z.z.z.z.z.z.z.z.z.z.z.",
"z.z.z.z.z.z.z.z.z.z.z.z.z.B.B.B.B.B.C.C.C.C.z.k.1.} g g h h ^ ^ j ^ j h g g } 1.k.z.C.C.C.V.V.V.z.z.z.z.z.z.z.z.z.z.z.z.z.z.B.z.",
"z.z.z.z.z.z.z.z.z.z.z.z.z.z.z.B.V.B.V.V.V.V.z.k.t.w.9.0.1.w.0.0.0.w.0.8.1.1.w.j.k.B.C.V.B.V.V.z.B.z.z.z.z.z.z.z.z.B.z.z.z.z.z.z.",
"z.z.z.V.z.z.z.z.z.z.z.z.B.z.z.z.B.z.z.z.z.z.z.z.l.l.l.l.l.l.l.l.l.l.l.l.l.l.l.l.z.z.z.z.z.z.z.z.z.z.z.z.z.B.z.z.z.z.z.z.z.z.z.B.",
"z.z.z.z.z.z.z.z.z.z.z.z.z.B.z.z.z.z.z.z.z.z.z.z.B.B.V.B.B.V.V.V.B.B.B.C.B.B.B.B.z.z.z.z.z.B.z.z.z.z.z.B.z.z.z.z.z.z.z.B.z.z.z.z.",
"z.z.z.z.z.z.z.z.z.B.z.z.z.z.z.z.z.z.z.z.z.z.z.V.B.C.B.C.B.C.V.V.B.C.C.B.C.C.C.B.V.z.z.z.z.z.z.z.z.B.z.z.z.z.z.z.z.z.z.z.z.z.z.z.",
"z.z.z.z.z.z.z.z.z.z.z.z.z.z.z.z.z.z.z.z.z.B.z.B.z.B.B.B.V.V.z.V.B.B.B.B.B.B.B.B.z.z.z.z.z.z.z.z.z.z.z.z.z.z.z.z.z.z.z.z.z.z.z.z.",
"z.z.z.z.z.z.z.z.z.z.z.z.z.z.z.z.z.z.z.B.z.z.z.z.z.z.B.B.z.z.z.z.B.B.B.B.z.z.z.z.z.z.z.z.z.z.z.B.z.z.z.z.z.z.B.z.z.z.B.z.B.z.z.z.",
"z.z.z.z.z.z.z.z.z.z.z.B.z.z.B.z.z.z.z.z.z.z.z.z.z.B.z.z.z.B.z.z.B.z.z.z.z.z.z.B.z.z.z.z.z.z.z.z.z.z.z.B.z.z.B.z.z.z.z.z.z.z.z.z.",
"z.z.z.z.z.z.z.z.z.V.z.z.z.z.z.z.z.B.z.z.z.z.z.z.z.z.z.z.z.z.z.z.z.z.z.z.z.z.z.z.z.z.z.z.V.z.z.z.z.z.z.z.z.z.z.z.z.z.z.z.z.B.z.z."
};
