/* XPM */
static char *result[] = {
/* columns rows colors chars-per-pixel */
"64 64 173 2 ",
"   c black",
".  c #000001",
"X  c #010001",
"o  c #000101",
"O  c #000301",
"+  c #000202",
"@  c #070001",
"#  c #070201",
"$  c #070302",
"%  c #000503",
"&  c #000006",
"*  c #090101",
"=  c #080201",
"-  c #080302",
";  c #0A0302",
":  c #0B0302",
">  c #090402",
",  c #0A0402",
"<  c #0B0402",
"1  c #110503",
"2  c #120402",
"3  c #120503",
"4  c #120602",
"5  c #130602",
"6  c #120703",
"7  c #120804",
"8  c #300000",
"9  c #310000",
"0  c #330000",
"q  c #300102",
"w  c #300202",
"e  c #330203",
"r  c #340000",
"t  c #330504",
"y  c #330B04",
"u  c #330C05",
"i  c #390C05",
"p  c #3B0E05",
"a  c #390E06",
"s  c #3B0F06",
"d  c #341605",
"f  c #371806",
"g  c #331808",
"h  c #341908",
"j  c #351908",
"k  c #361A09",
"l  c #351D09",
"z  c #371E0A",
"x  c #331F0F",
"c  c #351F0F",
"v  c #3B1D0A",
"b  c #3C1E0A",
"n  c #3E1E0A",
"m  c #3E1F0B",
"M  c #3F1F0B",
"N  c #371C10",
"B  c #35200F",
"V  c #332111",
"C  c #332312",
"Z  c #352010",
"A  c #352212",
"S  c #342412",
"D  c #362513",
"F  c #3A2312",
"G  c #3B2412",
"H  c #3B2513",
"J  c #3C2513",
"K  c #3D2513",
"L  c #3D2613",
"P  c #3D2614",
"I  c #3E2614",
"U  c #501609",
"Y  c #51220D",
"T  c #502714",
"R  c #542C11",
"E  c #522815",
"W  c #523017",
"Q  c #52341C",
"!  c #53341C",
"~  c #53351D",
"^  c #3C4042",
"/  c #584944",
"(  c #D74626",
")  c #D74726",
"_  c #DC4625",
"`  c #DC4626",
"'  c #DC4827",
"]  c #DE4827",
"[  c #DE4927",
"{  c #DD4F2C",
"}  c #DD502C",
"|  c #E14525",
" . c #E14625",
".. c #E24726",
"X. c #E14826",
"o. c #E34827",
"O. c #E34927",
"+. c #E34928",
"@. c #E34B29",
"#. c #E54C29",
"$. c #E24F2C",
"%. c #E2502C",
"&. c #E2512D",
"*. c #E4522D",
"=. c #E4522E",
"-. c #E25731",
";. c #E35731",
":. c #EB7F29",
">. c #E57E34",
",. c #E17E3C",
"<. c #E17F3D",
"1. c #EB8136",
"2. c #EB8236",
"3. c #EC8236",
"4. c #ED8336",
"5. c #E6813E",
"6. c #E6823E",
"7. c #E7823E",
"8. c #E7823F",
"9. c #EC8339",
"0. c #E8823F",
"q. c #DE9459",
"w. c #E88341",
"e. c #EB8440",
"r. c #EB8540",
"t. c #EC8540",
"y. c #ED8540",
"u. c #ED8640",
"i. c #EE8640",
"p. c #EF8741",
"a. c #EC8642",
"s. c #ED8642",
"d. c #ED8743",
"f. c #EE8743",
"g. c #EC8644",
"h. c #EF8843",
"j. c #ED8D54",
"k. c #E88C59",
"l. c #ED8F5A",
"z. c #E3955A",
"x. c #EF905B",
"c. c #E8965A",
"v. c #ED905C",
"b. c #E3985B",
"n. c #E3985C",
"m. c #E3995C",
"M. c #E4985C",
"N. c #E4995C",
"B. c #E5995C",
"V. c #E8995C",
"C. c #E9995C",
"Z. c #E99A5C",
"A. c #E99A5D",
"S. c #EA9A5C",
"D. c #EA9A5D",
"F. c #E89B5E",
"G. c #E99B5E",
"H. c #E89C5E",
"J. c #E99C5E",
"K. c #E99D5E",
"L. c #E99D5F",
"P. c #EA9D5E",
"I. c #EA9D5F",
"U. c #EB9D5F",
"Y. c #E99E5F",
"T. c #EA9E5F",
"R. c #EB9E5F",
"E. c #EC9E5F",
"W. c #EE986D",
"Q. c #F9F9F9",
"!. c #FEFAF9",
"~. c #FEFBF9",
"^. c white",
/* pixels */
"^.~.!.!.!.!.!.!.!.!.!.!.!.!.!.!.!.!.!.!.!.!.!.!.!.!.!.!.!.!.!.!.!.!.!.!.!.!.!.!.!.!.!.!.!.!.!.!.!.!.!.!.!.!.!.!.!.!.!.!.!.!.!.!.",
"!.W.j.v.l.l.l.l.l.l.l.l.l.l.l.l.l.l.l.l.l.l.l.l.l.l.l.l.l.l.l.l.l.l.l.l.l.l.l.l.l.l.l.l.l.l.l.l.l.l.l.l.l.l.l.l.l.l.l.l.l.l.l.l.",
"!.j.:.9.3.3.3.3.3.3.3.3.3.3.3.3.3.3.3.3.3.3.3.3.3.3.3.3.3.3.3.3.3.3.3.3.3.3.3.3.3.3.3.3.3.3.3.3.3.3.3.3.3.3.3.3.3.3.3.3.3.3.3.3.",
"!.v.9.g.a.a.a.a.a.a.a.a.a.a.a.a.a.a.a.a.a.a.a.a.a.a.a.a.a.a.a.a.a.a.a.a.a.a.a.a.a.a.a.a.a.a.a.a.a.a.a.a.a.a.a.a.a.a.a.a.a.a.a.a.",
"!.l.3.a.t.t.t.t.t.t.t.t.t.t.t.t.t.t.t.t.t.t.t.t.t.t.t.t.t.t.t.t.t.t.t.t.t.t.t.t.t.t.t.t.t.t.t.t.t.t.t.t.t.t.t.t.t.t.t.t.t.t.t.t.",
"!.l.3.a.t.t.t.t.t.t.t.t.t.t.t.t.t.t.t.t.t.t.t.t.t.t.t.t.t.t.t.t.t.t.t.t.t.t.t.t.t.t.t.t.t.t.t.t.t.t.t.t.t.t.t.t.t.t.t.t.t.t.t.t.",
"!.l.3.a.t.t.t.t.t.t.t.t.t.t.t.t.t.t.t.t.t.t.t.t.t.t.t.t.t.t.t.t.t.t.t.t.t.t.t.t.t.t.t.t.t.t.t.t.t.t.t.t.t.t.t.t.t.t.t.t.t.t.t.t.",
"!.l.3.a.t.t.t.t.t.t.t.t.t.t.t.t.t.t.t.t.t.t.t.t.t.u.i.i.i.i.i.i.i.i.i.i.i.i.i.i.u.t.t.t.t.t.t.t.t.t.t.t.t.t.t.t.t.t.t.t.t.t.t.t.",
"!.l.3.a.t.t.t.t.t.t.t.t.t.t.t.t.t.t.t.t.t.t.t.t.t.7.6.6.6.6.6.6.6.6.6.6.6.6.6.6.7.t.t.t.t.t.t.t.t.t.t.t.t.t.t.t.t.t.t.t.t.t.t.t.",
"!.l.3.a.t.t.t.t.t.t.t.t.t.t.t.t.t.t.t.t.t.t.t.u.6.R h m b b b b b b b b b b m h R 6.u.t.t.t.t.t.t.t.t.t.t.t.t.t.t.t.t.t.t.t.t.t.",
"!.l.3.a.t.t.t.t.t.t.t.t.t.t.t.t.t.t.t.t.t.t.r.u.5.k                             k 5.u.r.t.t.t.t.t.t.t.t.t.t.t.t.t.t.t.t.t.t.t.t.",
"!.l.3.a.t.u.i.i.i.i.i.i.i.i.i.i.i.i.i.i.i.i.u.p.0.f                             f 0.p.u.i.i.i.i.i.i.i.i.i.i.i.i.i.i.i.i.u.t.t.t.",
"!.l.3.a.t.7.6.6.6.6.6.6.6.6.6.6.6.6.6.6.6.6.5.0.<.W V K H H H H H H H H H H K V W <.0.5.6.6.6.6.6.6.6.6.6.6.6.6.6.6.6.6.7.t.t.t.",
"!.l.2.d.6.R h m b b b b b b b b b b b b b b m d W q.B.b.n.n.n.n.n.n.n.n.n.n.b.B.q.W d m b b b b b b b b b b b b b b m h R 6.u.t.",
"!.l.2.f.6.h                                     V B.E.P.I.U.U.U.U.U.U.U.U.I.P.E.B.V                                     h 6.u.t.",
"!.l.2.f.6.m   4 ; ; ; : =         = : ; ; ; 6   L m.T.H.K.J.J.J.J.J.J.J.J.K.H.T.m.L   6 ; ; ; : =         = : ; ; ; 4   m 6.u.t.",
"!.l.2.f.6.b   ; . . X . - F J J F - . X . . ,   G z.D.V.C.J.J.J.J.J.J.J.J.C.V.D.z.G   , . . X . - F J J F - . X . . ;   b 6.u.t.",
"!.l.2.f.6.b   ; . . >   F q.N.N.q.F   > . . *   a { =.$.;.C.K.J.J.J.J.K.C.;.$.=.{ a   * . . >   F q.N.N.q.F   > . . ;   b 6.u.t.",
"!.l.2.f.6.m   4 ; X ,   J N.R.R.N.I   7 , , 1 o s _ O.| $.C.K.J.J.J.J.K.C.$.| O._ s o 1 , , 7   I N.R.R.N.J   , X ; 4   m 6.u.t.",
"!.l.2.f.6.h       . <   J N.R.R.N.x             9 [ #.O.=.A.Y.K.L.L.K.Y.A.=.O.#.[ 9             x N.R.R.N.J   < .       h 6.u.t.",
"!.l.2.d.6.R g M v = $   F q.N.N.q.Q x L H H K S T ) [ _ { c.Z.C.C.C.C.Z.c.{ _ [ ) T S K H H L x Q q.N.N.q.F   $ = v M g R 6.u.t.",
"!.l.3.a.t.7.5.0.,.v   # - F I x Q q.B.b.n.n.b.B.q.T 0 u U { *.&.&.&.&.*.{ U u 0 T q.B.b.n.n.b.B.q.Q x I F - #   v ,.0.5.7.t.t.t.",
"!.l.3.a.t.u.u.p.0.M   5 #       x B.E.P.U.U.P.E.B.D   + u _ o.X.X.X.X.o._ u +   D B.E.P.U.U.P.E.B.x       # 5   M 0.p.u.u.t.t.t.",
"!.l.3.a.t.t.e.u.5.g       $ 7   L b.P.F.J.J.F.P.b.c     0 [ #.@.@.@.@.#.[ 0     c b.P.F.J.J.F.P.b.L   7 $       g 5.u.e.t.t.t.t.",
"!.l.3.a.t.t.t.u.6.R g M v = -   H b.I.J.J.J.J.I.M.~ c D T ) ] ' ' ' ' ] ) T D c ~ M.I.J.J.J.J.I.b.H   - = v M g R 6.u.t.t.t.t.t.",
"!.l.3.a.t.t.t.t.t.7.5.0.,.v     H b.I.J.J.J.J.J.J.M.b.B.q.T 9 s i i s 9 T q.B.b.M.J.J.J.J.J.J.I.b.H     v ,.0.5.7.t.t.t.t.t.t.t.",
"!.l.3.a.t.t.t.t.t.u.y.p.8.M .   P b.I.J.J.J.J.J.J.I.P.E.B.D   % o o %   D B.E.P.I.J.J.J.J.J.J.I.b.P   . M 8.p.y.u.t.t.t.t.t.t.t.",
"!.l.3.a.t.t.t.t.t.u.y.p.7.d     x b.U.J.J.I.U.U.I.J.F.P.b.c             c b.P.F.J.I.U.U.I.J.J.U.b.x     d 7.p.y.u.t.t.t.t.t.t.t.",
"!.l.3.a.t.t.t.t.t.7.5.0.<.W A B ~ M.I.J.J.M.b.b.M.J.J.I.M.~ x P H H P x ~ M.I.J.J.M.b.b.M.J.J.I.M.~ B A W <.0.5.7.t.t.t.t.t.t.t.",
"!.l.3.a.t.t.t.u.6.R k f W q.B.b.M.J.J.I.M.~ Z Z ~ M.I.J.J.M.b.n.n.n.n.b.M.J.J.I.M.~ Z Z ~ M.I.J.J.M.b.B.q.W f k R 6.u.t.t.t.t.t.",
"!.l.3.a.t.t.t.u.6.h     V B.E.P.I.J.J.I.b.Z     Z b.I.J.J.I.U.U.U.U.U.U.I.J.J.I.b.Z     Z b.I.J.J.I.P.E.B.V     h 6.u.t.t.t.t.t.",
"!.l.3.a.t.t.t.u.6.m     K b.P.F.J.J.J.I.b.Z     Z b.I.J.J.J.J.J.J.J.J.J.J.J.J.I.b.Z     Z b.I.J.J.J.F.P.b.K     m 6.u.t.t.t.t.t.",
"!.l.3.a.t.t.t.u.6.b     H b.I.J.J.J.J.I.M.~ Z Z ~ M.I.J.J.J.J.J.J.J.J.J.J.J.J.I.M.~ Z Z ~ M.I.J.J.J.J.I.b.H     b 6.u.t.t.t.t.t.",
"!.l.3.a.t.t.t.u.6.b     H b.I.J.J.J.J.J.J.M.b.b.M.J.J.J.J.J.J.J.J.J.J.J.J.J.J.J.J.M.b.b.M.J.J.J.J.J.J.I.b.H     b 6.u.t.t.t.t.t.",
"!.l.3.a.t.t.r.u.5.m .   P b.I.J.J.J.J.J.J.I.U.U.I.J.J.J.J.J.J.J.J.J.J.J.J.J.J.J.J.I.U.U.I.J.J.J.J.J.J.I.b.P   . m 5.u.r.t.t.t.t.",
"!.l.3.a.t.u.u.p.0.d     x b.I.J.J.L.L.L.K.J.J.J.J.J.J.J.J.I.U.U.U.U.U.U.I.J.J.J.J.J.J.J.J.K.L.L.L.J.J.I.b.x     d 0.p.u.u.t.t.t.",
"!.l.3.a.t.7.5.0.<.W A B ~ M.I.J.J.C.C.C.C.J.J.J.J.J.J.J.J.M.b.n.n.n.n.b.M.J.J.J.J.J.J.J.J.C.C.C.C.J.J.I.M.~ B A W <.0.5.7.t.t.t.",
"!.l.2.d.6.R k f W q.B.b.M.J.J.K.C.;.%.%.;.C.K.J.J.J.J.I.M.~ x P H H P x ~ M.I.J.J.J.J.K.C.;.%.%.;.C.K.J.J.M.b.B.q.W f k R 6.u.t.",
"!.l.1.s.5.k     A B.E.P.I.J.J.L.C.%.....%.C.L.J.J.J.J.I.b.Z             Z b.I.J.J.J.J.L.C.%.....%.C.L.J.J.I.P.E.B.A     k 5.u.r.",
"!.x.4.h.0.f     Z m.T.H.K.J.J.L.C.%.....%.C.L.J.J.J.J.I.b.Z             Z b.I.J.J.J.J.L.C.%.....%.C.L.J.J.K.H.T.m.Z     f 0.p.u.",
"!.k.>.w.<.W A Z ! z.D.V.C.J.J.K.C.;.%.%.;.C.K.J.J.J.J.I.M.~ x P H H P x ~ M.I.J.J.J.J.K.C.;.%.%.;.C.K.J.J.C.V.D.z.! Z A W <.0.5.",
"Q./ r N W q.B.m.z.-.%.%.;.C.K.J.J.C.C.C.C.J.J.J.J.J.J.J.J.M.b.n.n.n.n.b.M.J.J.J.J.J.J.J.J.C.C.C.C.J.J.K.C.;.%.%.-.z.m.B.q.W d m ",
"Q.^   & A N.E.I.S.$. . .$.C.L.J.J.L.L.L.L.J.J.J.J.J.J.J.J.I.U.U.U.U.U.U.I.J.J.J.J.J.J.J.J.L.L.L.L.J.J.L.C.$. . .$.S.I.E.N.A     ",
"Q.^   & A N.E.I.S.=.+.+.*.C.L.J.J.J.J.J.J.J.J.J.J.J.J.J.J.J.J.J.J.J.J.J.J.J.J.J.J.J.J.J.J.J.J.J.J.J.J.L.C.*.+.+.=.S.I.E.N.A     ",
"Q./ r N W q.B.m.z.{ ` ` } V.L.J.J.J.J.J.J.J.J.J.J.J.J.J.J.J.J.J.J.J.J.J.J.J.J.J.J.J.J.J.J.J.J.J.J.J.J.L.V.} ` ` { z.m.B.q.W d m ",
"!.k.>.w.<.W V L G a s 8 E M.I.J.J.J.J.J.J.J.J.J.J.J.J.J.J.J.J.J.J.J.J.J.J.J.J.J.J.J.J.J.J.J.J.J.J.J.J.I.M.E 8 s a G L V W <.0.5.",
"!.x.4.h.0.f         o   C b.I.G.J.J.J.J.J.J.J.J.J.J.J.J.J.J.J.J.J.J.J.J.J.J.J.J.J.J.J.J.J.J.J.J.J.J.G.I.b.C   o         f 0.p.u.",
"!.l.1.s.5.k       @ 3   K m.R.K.L.J.J.J.J.J.J.J.J.J.J.J.J.J.J.J.J.J.J.J.J.J.J.J.J.J.J.J.J.J.J.J.J.L.K.R.m.K   3 @       k 5.u.r.",
"!.l.2.d.6.R g M v = -   G z.D.V.C.J.J.J.J.J.J.J.J.J.J.J.J.J.J.J.J.J.J.J.J.J.J.J.J.J.J.J.J.J.J.J.J.C.V.D.z.G   - = v M g R 6.u.t.",
"!.l.3.a.t.7.5.0.,.v     a { =.$.;.C.K.J.J.J.J.J.J.J.J.J.J.J.J.J.J.J.J.J.J.J.J.J.J.J.J.J.J.J.J.K.C.;.$.=.{ a     v ,.0.5.7.t.t.t.",
"!.l.3.a.t.u.u.p.0.M   O p _ O.| $.C.K.J.J.J.J.J.J.J.J.J.J.J.J.J.J.J.J.J.J.J.J.J.J.J.J.J.J.J.J.K.C.$.| O._ p O   M 0.p.u.u.t.t.t.",
"!.l.3.a.t.t.e.u.5.g     w [ #.O.=.A.Y.K.L.J.J.J.J.J.J.J.J.J.J.J.J.J.J.J.J.J.J.J.J.J.J.J.J.L.K.Y.A.=.O.#.[ w     g 5.u.e.t.t.t.t.",
"!.l.3.a.t.t.t.u.6.R j z Y ( [ _ { c.A.C.C.J.J.J.J.J.J.J.J.J.J.J.J.J.J.J.J.J.J.J.J.J.J.J.J.C.C.A.c.{ _ [ ( Y z j R 6.u.t.t.t.t.t.",
"!.l.3.a.t.t.t.t.t.7.5.0.,.Y e y U { =.$.;.C.K.J.J.J.J.J.J.J.J.J.J.J.J.J.J.J.J.J.J.J.J.K.C.;.$.=.{ U y e Y ,.0.5.7.t.t.t.t.t.t.t.",
"!.l.3.a.t.t.t.t.t.u.u.p.0.z     y _ O.| $.C.K.J.J.J.J.J.J.J.J.J.J.J.J.J.J.J.J.J.J.J.J.K.C.$.| O._ y     z 0.p.u.u.t.t.t.t.t.t.t.",
"!.l.3.a.t.t.t.t.t.t.e.u.5.j     e [ #.O.=.A.Y.K.L.L.L.L.L.I.U.U.U.U.U.U.I.L.L.L.L.L.K.Y.A.=.O.#.[ e     j 5.u.e.t.t.t.t.t.t.t.t.",
"!.l.3.a.t.t.t.t.t.t.t.u.6.R j z Y ( [ _ { c.Z.C.C.C.C.C.V.M.b.n.n.n.n.b.M.V.C.C.C.C.C.Z.c.{ _ [ ( Y z j R 6.u.t.t.t.t.t.t.t.t.t.",
"!.l.3.a.t.t.t.t.t.t.t.t.t.7.5.0.,.Y e y U { *.&.&.&.&.*.} E C K H H K C E } *.&.&.&.&.*.{ U y e Y ,.0.5.7.t.t.t.t.t.t.t.t.t.t.t.",
"!.l.3.a.t.t.t.t.t.t.t.t.t.u.u.p.0.z     y _ o.X.X.X.X.o._ 0             0 _ o.X.X.X.X.o._ y     z 0.p.u.u.t.t.t.t.t.t.t.t.t.t.t.",
"!.l.3.a.t.t.t.t.t.t.t.t.t.t.e.u.5.j     e [ #.@.@.@.@.#.[ t             t [ #.@.@.@.@.#.[ e     j 5.u.e.t.t.t.t.t.t.t.t.t.t.t.t.",
"!.l.3.a.t.t.t.t.t.t.t.t.t.t.t.u.6.R j z Y ( ] ' ' ' ' ] ( Y l n b b n l Y ( ] ' ' ' ' ] ( Y z j R 6.u.t.t.t.t.t.t.t.t.t.t.t.t.t.",
"!.l.3.a.t.t.t.t.t.t.t.t.t.t.t.t.t.7.5.0.,.Y q p i i p q Y ,.0.5.6.6.5.0.,.Y q p i i p q Y ,.0.5.7.t.t.t.t.t.t.t.t.t.t.t.t.t.t.t.",
"!.l.3.a.t.t.t.t.t.t.t.t.t.t.t.t.t.u.u.p.0.l   .     .   l 0.p.u.i.i.u.p.0.l   .     .   l 0.p.u.u.t.t.t.t.t.t.t.t.t.t.t.t.t.t.t.",
"!.l.3.a.t.t.t.t.t.t.t.t.t.t.t.t.t.t.r.u.5.n   2 * * 2   n 5.u.r.t.t.r.u.5.n   2 * * 2   n 5.u.r.t.t.t.t.t.t.t.t.t.t.t.t.t.t.t.t."
};
