/* XPM */
static char *result[] = {
/* columns rows colors chars-per-pixel */
"64 64 68 1 ",
"  c #292930",
". c #202A38",
"X c #2F2E38",
"o c #322E31",
"O c #302E38",
"+ c #233439",
"@ c #2F3739",
"# c #343739",
"$ c #343939",
"% c #393A3A",
"& c #433A32",
"* c #4B3738",
"= c #443F38",
"- c #4D3F39",
"; c #46413A",
": c #49423A",
"> c #524139",
", c #56563C",
"< c #644739",
"1 c #675B3C",
"2 c #4F554F",
"3 c #51564F",
"4 c #5A5A4F",
"5 c #4E5450",
"6 c #515650",
"7 c #997625",
"8 c #9D7924",
"9 c #9E7C2F",
"0 c #977730",
"q c #9C7B30",
"w c #A27925",
"e c #A37D2F",
"r c #A07E31",
"t c #ED862B",
"y c #ED882C",
"u c #E78735",
"i c #EC8734",
"p c #ED8B35",
"a c #F08C35",
"s c #EE9439",
"d c #9F8549",
"f c #A2874A",
"g c #A3884A",
"h c #A88849",
"j c #B58F4A",
"k c #B79148",
"l c #BC944A",
"z c #C19B46",
"x c #C09549",
"c c #C19D4C",
"v c #ED934D",
"b c #ED9B4F",
"n c #C4A45C",
"m c #F8F45F",
"M c #FEFD5F",
"N c #F3F260",
"B c #FBF560",
"V c #FDFC62",
"C c #FDFD6F",
"Z c #FFFF70",
"A c #DBF2D7",
"S c #DFF8DC",
"D c #E4F5D7",
"F c #E3F9D7",
"G c #E2F9DC",
"H c #E8FFDE",
"J c #E5FEE2",
"K c #E8FFE4",
/* pixels */
"GGHDnzccxxlxccccccccccccccznFHHHHHHFnzccccccccccccccxxxlccznDGHD",
"vvvbBVVBspisBVBVVVVVVVVVCVVVCCCCCCCCVVVVVVVVVVVVCVVmspismVVBbvvv",
"tytaVVVVsiisVVVVVVVVVVVVVVVVVVVVMMMVVVVVVVVVVVVVVVVVsipsVVVVaiyy",
"ppisVVVVsppsVVVVVVVVVVVVVVVVVVVVVVVVVVVVVVVVVVVVVVVVsppsMVVVsppp",
"ppisVVVVuuusBVBBBBVNBBBVVVVBBNBBmVmMVVBNMBBNBVmVVVBBsuuuVVVVsipp",
"ppisVVVB1*>>,,,,,,,,,,,,,,,,,,,,,,,,,,,4,,,,,,,,,,,,>:*1VVVBsipp",
"ppisVVVV,.$$XX@XXXXX@XXXXXXX@XXXXXXXXXoXXXOXXXXXXXXX@$.,BVVVsipp",
"ppisVVVV,X%%$$@$$$$$@@@$$$$@$$$$$$@$$$@$$$$@$@$$$$$$%%O,VVVMsipp",
"ppisVVVB,X%%>>>>>>>>>>>>>:>>>>>>:>>>>>>>>>>>>>>>>>--%%X,VVVVsipp",
"paisVVVB,X$>uuuuupuuuuupipuuuiuuupuuupuuuuuuuuuuuuiu>$X,VVVVsppp",
"pppsVVVV,X@>ppppppppppppppppppppppppapppppppppppppap>$O,BVVVsipp",
"ppisVVVB,X$>upppappppppppppppppppppppppspppppppppppu>$O,BVVVsipp",
"ppisVVVV,O$>upppiuuuuuupuiuuiuuuuuuuuuuuiuuupuiipppu>$X,VVVVsiap",
"ipisVVVV,X@>uppu<->>>>>>>>>>>->>>>>>>>>>>>>>>>-<uppu>$O,VVVVsipp",
"ppisVVVB,O$>uppu-+$@$@$$$$$@$$$$$$$$$$$$$$@$@$+-ippu>$X,BVVVsipp",
"paisVVVM,O$>uppu>#%%ooooOooOooOoooooOoooooOo%%$-uppu:$X,VVVBsipp",
"ppisVVVV,X$>uppu>@%%666666666666666666666562%%@>uppu>@X,MVVVsipp",
"ppisBVVV,X$>uppu>$o2AGSSGSSGSSGGGSGGSSGGGSGA3O$>uppu>$X,MVVVsppp",
"ppisVVVV,X$>uppu>$o6GKJJJJJJJJJJJJJJJJJJJJKG6o$>pppu>$O,BVVVsipp",
"ppisVVVB,X$>uppp>@o2SJHJJJJJJJJJJJJJJJJJJJJG6o$>uppu>$O,BVVVsipp",
"pppsVVVV,O$>uppu-$o6SJJJJJJJJGJJJJJGJGJJJJJS6o$>uppp>$X,VVVVsiap",
"ppisVVVV,O$>uppu>#o6SJJJJJJGJJJJJJJJJJJJJJJG6o$>uppu>@X,VVVVsipp",
"ppisVVVV,O$>uppu>$o6SJJJJJJJJJJJJJJJJJJJJJJS6O$>uppu>$X,mVVVsipp",
"ppisVVVB,O$:pppu>$o6GJJJJGJJJJJJJJJJJJJGJJJG6O@>uppu>$X,VVVBsipp",
"ppisVVVV,X$>uppu>$O6SJJJJJJJJJJGGJJJJJJJJGJG6o$>uppu>$O,BVVVsipp",
"ppisVVVV,X$>uppp>$o6SKJJJJGJJJJJJJJJJGJJJJJG6o$>uppu>$O,VVVVsppp",
"ppisVVVB,X@>uppu>$o6SJHJJJJJJJJHJJJJJJJJJJJG6o$>uppu>$O,BVVVsipp",
"ppisVVVV,X$>uppu>$o6SJJJJJJJJJJJJJJJJJJJJJJS6o$>uppu>$O,BVVVsipp",
"ppisMVVB,X$:ippu>$o3FHHHGHHHHHHHHHHHGGHHHHHA6o@>uppp>$X,VVVVsiap",
"ppisVVVB,O$>uppu>$o,CCCCCCCCCCCCCCCCCCCCCCCC,X$>uppu>$O,VVVBsipp",
"ppisBVVV,O$>uppu>$X,mVMVMVVVMMMVMMVVMVMMVMMm,X$>pppu>$X,BVVVsipp",
"ppisMMVM,O$>ippp>$X3VVVVVVVVVVVVVVVVVVVVVVVV,X$>uppu:$X,VVMMsipp",
"ppusCCCC,O$>upiu-$O,NVVBBBBMBBmMVVmMBVBBmVVm,X$>uppu>$O,CZCCsupu",
"erwhDHHS6o$=qerq=#%%,,,,,,,,,,,,,,,,,,,,,,,,%##=9ee9;$o6AHHGhwee",
"998dSJKS6o%=0999=%%%XXXX@XXX@X#XXXXOXX@XOOOO%%#=9990=$o5GJKGf899",
"9q8fGJJG6o%=0e9q%##$$$%%$$$$$$$$$$$$#$$$$%$%##O=0990;%o6SJJGg8q9",
"9q8gGJJS6X%=099q>:::::::;:::;;:::::::::::::::;;,q990=%o6SJJGg8q9",
"9q8gGJJG6o$=9e9qkklklkkkkkkklllklklkkklklkkkkkklr999=%o6SJJGg8qq",
"qr8gGJJG3o%=099rlxlxclxxlcxxcllllxxlcllxclxlllllq9e0=%o6GKJGg8r9",
"9r8gGJJS3o%=999rlllllllllllllllllllllxlllllcllllr99q=$o6SJJGg8re",
"9r8gGJJS6o%;999qlllcllklllllllllllllllllllllllllq99q;%o6SKJGg8qq",
"qr8gGJJG6o$;999rllllrrrrrr9rrrr9rrrrrr9rrr9rllllq99q=$o6SJJGg8rq",
"9q8gGJKS6o%;0999llllq9e99999999999q999999999llllr9eq=%o6SKJGg8rq",
"9r8gGJJS6o$%9999llllr999999999999q999999999rllllr9qq;$o6SJJGg8r9",
"qq8gGJJS6o%;9e9rllllr9999999999999999999999rllllr990=$o6GJJGg8r9",
"rq8gGKJS2o%;099qllllr9999999999999999999999rllllr999=%o6GJJGg8q9",
"9q8gGKKS6o$;999ellllq9999999999999999999r99rllllq990=%o6SJJGg8rq",
"9r8gGJJS3o%;099rllllr99999999999999999999999llllr9e9=$o6SKJGg8r9",
"9r8gGJKS6o%;999ellllrrrrrqrrrrrrrrrrr9rrrrrrllllr990=%o6GJJGg8qq",
"9r8gGJJS3X$=099qlxllllllllllllllllllllllllllllllr9e0=$o6GJJGg8rq",
"rq8gGJJS3o$;qe9ekllllllllcllllllllcllllllllxllllq999=%o6SJJGg8qe",
"9r8gGJKG3o%;999qlclllxlcllllllllllllllllllllclllr9e0;$o6SJKGg8r9",
"9r8gGJJS3o%=099qlllllllklllllkllllllllllllllllllr9e0=%o6SJJGg8rq",
"9q8gGJKS6o$=q99qr99rqrr9rrr9rrr9rrr9r99rrrrrq99r999q=%o6SKJGg8r9",
"rq8gGJJS6o%;qq99999999999999999999999999999999999990=%o6SJJGg8r9",
"9r8gGJJS3o$;999e9999e9999e99999e9r999e999999999999r9=$o6SKJGg8q9",
"rq8gGKJS6o%=0qqq090q09990qq0q0qq999009090q0q0q090090*#o3SJJGg8qq",
"9q8gGJJG6o%%==========;&=========;=============*;==*%%o3GJJGg8rq",
"9q8fGJJS6o%%%##%#%%#%%%#%%#%#%%#$$$%#%###%%%%%#%$$%#%%o3SJKSg8r9",
"er8gGKKG5 $$########O$#########$#####################% 5GKKGg8r9",
"qq7dAGGA4*::-:::5*-:::::-::::::::::::::::::::::::::::5&4AGGAd7q9",
";;%;3354klkkkkkkkkkklkklkkkkllkkkklkklkkkklklkklklkkkkkj4533;;==",
"%%$$Oo =klxclxxlcllclxxlclxlxllxxcxlcxxxlclclxxllcxxlcxl& oo##$$",
"%%%%%%$:lllllllclxlllllllxlllxllllllllllxllllllxllllllxk:#%%%%%%"
};
