/* XPM */
static char *result[] = {
/* columns rows colors chars-per-pixel */
"64 64 193 2 ",
"   c black",
".  c #000001",
"X  c #010001",
"o  c #000101",
"O  c #000201",
"+  c #000102",
"@  c #040000",
"#  c #050000",
"$  c #060000",
"%  c #070101",
"&  c #070302",
"*  c #000401",
"=  c #000402",
"-  c #010402",
";  c #000502",
":  c #010502",
">  c #020502",
",  c #000702",
"<  c #000007",
"1  c #080000",
"2  c #080001",
"3  c #090001",
"4  c #090101",
"5  c #0A0101",
"6  c #080302",
"7  c #090302",
"8  c #0A0302",
"9  c #080402",
"0  c #090402",
"q  c #0A0402",
"w  c #0B0402",
"e  c #020A03",
"r  c #0B0904",
"t  c #00090C",
"y  c #000D0D",
"u  c #110202",
"i  c #120804",
"p  c #001700",
"a  c #320000",
"s  c #330001",
"d  c #390000",
"f  c #3B0000",
"g  c #310904",
"h  c #330A04",
"j  c #340A04",
"k  c #310D05",
"l  c #340D05",
"z  c #390B04",
"x  c #380C05",
"c  c #390C05",
"v  c #3A0C05",
"b  c #3B0D05",
"n  c #390E06",
"m  c #3C0D05",
"M  c #3A1006",
"N  c #331E0F",
"B  c #331F0F",
"V  c #3B1D10",
"C  c #00250D",
"Z  c #00270E",
"A  c #0D230D",
"S  c #0D230E",
"D  c #13230E",
"F  c #14250E",
"G  c #14250F",
"H  c #002B11",
"J  c #002D18",
"K  c #102910",
"L  c #112A11",
"P  c #122B12",
"I  c #172B12",
"U  c #122C12",
"Y  c #1B3C1A",
"T  c #332312",
"R  c #352010",
"E  c #362010",
"W  c #3A2312",
"Q  c #3B2412",
"!  c #3B2413",
"~  c #3B2513",
"^  c #3C2513",
"/  c #3D2513",
"(  c #3C2613",
")  c #3D2613",
"_  c #3C2614",
"`  c #3D2614",
"'  c #3E2614",
"]  c #3B2C13",
"[  c #3D381B",
"{  c #4F1408",
"}  c #501508",
"|  c #522815",
" . c #52341C",
".. c #53341C",
"X. c #53351D",
"o. c #413E41",
"O. c gray26",
"+. c #424342",
"@. c #454E45",
"#. c #D74626",
"$. c #D74726",
"%. c #DC4625",
"&. c #DC4626",
"*. c #DC4827",
"=. c #DD4827",
"-. c #DE4827",
";. c #DE4927",
":. c #DD4F2C",
">. c #DD502C",
",. c #E14525",
"<. c #E14625",
"1. c #E14826",
"2. c #E14827",
"3. c #E34827",
"4. c #E34927",
"5. c #E34928",
"6. c #E14A28",
"7. c #E24A28",
"8. c #E34A28",
"9. c #E34B28",
"0. c #E34B29",
"q. c #E54B29",
"w. c #E34C29",
"e. c #E54C29",
"r. c #E24F2C",
"t. c #E2502C",
"y. c #E2512D",
"u. c #E2522D",
"i. c #E3522D",
"p. c #E4522D",
"a. c #E4522E",
"s. c #E25731",
"d. c #E35731",
"f. c #4DAB4B",
"g. c #51A84F",
"h. c #55A553",
"j. c #56A553",
"k. c #56A653",
"l. c #54AC51",
"z. c #54AC52",
"x. c #55AD52",
"c. c #56AD53",
"v. c #57A955",
"b. c #58AA56",
"n. c #58AB56",
"m. c #59AB58",
"M. c #5AAD58",
"N. c #5AAE58",
"B. c #5AAF58",
"V. c #5BAE59",
"C. c #5BAF59",
"Z. c #5CAF5A",
"A. c #5DAF5B",
"S. c #5BB059",
"D. c #5CB05A",
"F. c #5DB15B",
"G. c #68B266",
"H. c #6BB069",
"J. c #6CB36B",
"K. c #6CB46B",
"L. c #6DB56B",
"P. c #6DB46C",
"I. c #7BB97A",
"U. c #DE9459",
"Y. c #E3955A",
"T. c #E8965A",
"R. c #E3985B",
"E. c #E3985C",
"W. c #E3995C",
"Q. c #E4985C",
"!. c #E4995C",
"~. c #E5995C",
"^. c #E8995C",
"/. c #E9995C",
"(. c #E99A5C",
"). c #EA9A5C",
"_. c #EA9A5D",
"`. c #E89B5E",
"'. c #E99B5E",
"]. c #E99C5E",
"[. c #E99D5E",
"{. c #E99D5F",
"}. c #EA9C5E",
"|. c #EA9D5E",
" X c #EA9D5F",
".X c #EB9D5F",
"XX c #EA9E5F",
"oX c #EB9E5F",
"OX c #EC9E5F",
"+X c #F9F9F9",
"@X c #F9FBF9",
"#X c #FAFCFA",
"$X c white",
/* pixels */
"$X#X@X@X@X@X@X@X@X@X@X@X@X@X@X@X@X@X@X@X@X+X+X+X+X+X+X+X+X+X+X+X+X+X+X+X+X+X+X+X+X+X+X+X+X@X@X@X@X@X@X@X@X@X@X@X@X@X@X@X@X@X@X@X",
"#XI.G.P.K.K.K.K.K.K.K.K.K.K.K.K.K.K.J.L.H.@.o.+.O.O.O.O.O.O.O.O.O.O.O.O.O.O.O.O.O.O.+.o.@.H.L.J.K.K.K.K.K.K.K.K.K.K.K.K.K.K.K.K.",
"@XG.f.c.z.z.z.z.z.z.z.z.z.z.z.z.z.z.l.x.g.p                                             p g.x.l.z.z.z.z.z.z.z.z.z.z.z.z.z.z.z.z.",
"@XP.c.A.V.V.V.V.V.V.V.V.V.V.V.V.V.Z.Z.F.m.J < y t t t t t t t t t t t t t t t t t t y < J m.F.Z.Z.V.V.V.V.V.V.V.V.V.V.V.V.V.V.V.",
"@XK.z.V.N.N.N.N.N.N.N.N.N.N.N.N.N.b.v.n.j.] d M c c c c c c c c c c c c c c c c c c M d ] j.n.v.b.N.N.N.N.N.N.N.N.N.N.N.N.N.N.N.",
"@XK.z.V.N.N.N.N.N.N.N.N.N.N.N.C.b.Y D H ] $.-.*.*.*.*.*.*.*.*.*.*.*.*.*.*.*.*.*.*.*.*.-.$.] H D Y b.C.N.N.N.N.N.N.N.N.N.N.N.N.N.",
"@XK.z.V.N.N.N.N.N.N.N.N.N.N.M.B.v.D 1   f -.q.8.9.9.9.9.9.9.9.9.9.8.8.8.8.9.9.9.9.9.8.q.-.f   1 D v.B.M.N.N.N.N.N.N.N.N.N.N.N.N.",
"@XK.z.V.N.N.N.N.N.N.N.N.N.C.B.S.n.H   * k *.8.6.7.7.7.7.7.7.7.7.7.8.8.8.8.7.7.7.7.7.6.8.*.k *   H n.S.B.C.N.N.N.N.N.N.N.N.N.N.N.",
"@XK.z.V.N.N.N.N.N.N.N.N.N.b.v.n.j.] f k } =.8.7.7.7.7.7.7.7.7.7.7.=.*.*.=.7.7.7.7.7.7.8.=.} k f ] j.n.v.b.N.N.N.N.N.N.N.N.N.N.N.",
"@XK.z.V.N.N.N.N.N.N.N.C.b.Y D H ] $.-.*.=.7.7.7.7.7.7.7.7.7.7.8.=.} h h } =.8.7.7.7.7.7.7.=.*.-.$.] H D Y b.C.N.N.N.N.N.N.N.N.N.",
"@XK.z.V.N.N.N.N.N.N.N.C.b.S     d -.q.8.9.7.7.7.7.7.7.7.7.7.6.8.*.g     g *.9.7.7.7.7.7.7.9.8.q.-.d     S b.C.N.N.N.N.N.N.N.N.N.",
"@XK.z.V.N.N.N.N.N.N.N.C.b.P # , M *.8.6.7.7.7.7.7.7.7.7.7.9.8.q.-.m     b *.9.7.7.7.7.7.7.7.6.8.*.M , # P b.C.N.N.N.N.N.N.N.N.N.",
"@XK.z.V.N.N.N.N.N.N.N.C.b.L @ O c *.9.7.7.7.7.7.7.7.7.7.7.=.*.-.#.x     c *.9.7.7.7.7.7.7.7.7.9.*.c O @ L b.C.N.N.N.N.N.N.N.N.N.",
"@XK.z.V.N.N.N.N.N.N.N.C.b.L @ O c *.9.7.7.7.7.7.7.7.7.8.=.} g m x % %   c *.9.7.7.7.7.7.7.7.7.9.*.c O @ L b.C.N.N.N.N.N.N.N.N.N.",
"@XK.z.V.N.N.N.N.N.N.M.B.v.L @ O c *.9.7.7.7.7.7.7.7.6.8.*.g       . 5   c *.8.6.7.7.7.7.7.7.7.9.*.c O @ L v.B.M.N.N.N.N.N.N.N.N.",
"@XK.z.V.N.N.N.N.N.C.B.S.n.L @ O c *.9.7.7.7.7.7.7.9.8.q.-.m   u 4 . 4   v -.q.8.9.7.7.7.7.7.7.9.*.c O @ L n.S.B.C.N.N.N.N.N.N.N.",
"@XK.z.V.N.N.N.N.N.b.v.n.h.K @ o c *.9.7.7.7.7.7.7.=.*.-.#.x   4 . . 4   x #.-.*.=.7.7.7.7.7.7.9.*.c o @ K h.n.v.b.N.N.N.N.N.N.N.",
"@XK.z.V.N.N.N.C.b.Y A U K - 3   c *.9.7.7.7.7.8.=.} g m x % . . . . . . % x m g } =.8.7.7.7.7.9.*.c   3 - K U A Y b.C.N.N.N.N.N.",
"@XK.z.V.N.N.N.C.b.S       . 4   c *.8.6.7.7.6.8.*.h       % 5 4 4 4 4 5 %       h *.8.6.7.7.6.8.*.c   4 .       S b.C.N.N.N.N.N.",
"@XK.z.V.N.N.N.C.b.P   e : . 4   v -.q.8.9.9.8.q.-.j                             j -.q.8.9.9.8.q.-.v   4 . : e   P b.C.N.N.N.N.N.",
"@XK.z.V.N.N.N.C.b.L   : . . 4   x #.-.*.*.*.*.-.#.{ g b c c c c c c c c c c b g { #.-.*.*.*.*.-.#.x   4 . . :   L b.C.N.N.N.N.N.",
"@XK.z.V.N.N.N.C.b.L   : . . . . % x v c c c b g { #.-.*.*.*.*.*.*.*.*.*.*.*.*.-.#.{ g b c c c v x % . . . . :   L b.C.N.N.N.N.N.",
"@XK.z.V.N.N.M.B.v.I # r 0 X . . . o o o o o +   l ;.e.0.0.0.0.0.0.0.0.0.0.0.0.e.;.l   + o o o o o . . . X 0 r # I v.B.M.N.N.N.N.",
"@XK.z.V.N.C.B.S.n.C       . . . .               a %.3.1.1.1.1.1.1.1.1.1.1.1.1.3.%.a               . . . .       C n.S.B.C.N.N.N.",
"@XK.z.V.N.b.v.n.k.[ V _ W 6 . . 6 W ^ ! ~ ~ / T | >.p.y.y.y.y.y.y.y.y.y.y.y.y.p.>.| T / ~ ~ ! ^ W 6 . . 6 W _ V [ k.n.v.b.N.N.N.",
"@XK.z.Z.b.Y G Z [ U.!.!.U.W     W U.~.R.E.E.E.R.Q.^././././././././././././././.^.Q.R.E.E.E.R.~.U.W     W U.!.!.U.[ Z G Y b.C.N.",
"@XK.z.D.b.S     V ~.OXOX~.'     ' ~.OX|..X.X.X.X X[.[.[.[.{.{.{.{.{.{.{.{.[.[.[.[. X.X.X.X.X|.OX~.'     ' ~.OXOX~.V     S b.C.N.",
"@XK.z.D.b.P $   ( R.}.}.R.N     N R.|.`.].].].].].|..X.X|.].].].].].].].].|..X.X|.].].].].].`.|.R.N     N R.}.}.R.(   $ P b.C.N.",
"@XK.z.D.b.L #   ~ R.|.|.Q.X.R R X.Q. X].].].].].].Q.R.R.Q.].].].].].].].].Q.R.R.Q.].].].].].]. XQ.X.R R X.Q.|.|.R.~   # L b.C.N.",
"@XK.z.D.b.L #   ~ R. X].].Q.R.R.Q.].].].].].]. XQ.X.R R X.Q. X].].].]. XQ.X.R R X.Q. X].].].].].].Q.R.R.Q.].]. XR.~   # L b.C.N.",
"@XK.z.D.b.P $   ( R.|.`.].|. X X|.].].].].].]. XR.B     B R. X].].].]. XR.B     B R. X].].].].].].|. X X|.].`.|.R.(   $ P b.C.N.",
"@XK.z.D.b.S     V ~.OX|..X X|. X|.].].].].].]. XR.`     ` R. X].].].]. XR.`     ` R. X].].].].].].|. X|. X.X|.OX~.V     S b.C.N.",
"@XK.z.Z.b.Y G Z [ U.~.R.E.E.E.R.Q.].].].].].]. XR.~     ~ R. X].].].]. XR.~     ~ R. X].].].].].].Q.R.E.E.E.R.~.U.[ Z G Y b.C.N.",
"@XK.z.V.N.b.v.n.k.[ V ( ~ ~ ` B X.Q. X].].].]. XR.~     ~ R. X].].].]. XR.~     ~ R. X].].].]. XQ.X.B ` ~ ~ ( V [ k.n.v.b.N.N.N.",
"@XK.z.V.N.C.B.S.n.Z             N R.|.`.].].]. XR.`     ) R. X'.].].'. XR.)     ` R. X].].].`.|.R.N             Z n.S.B.C.N.N.N.",
"@XK.z.V.N.N.M.B.v.F   $ # 8 i   ' ~.OX|. X].]..XR.B     B W.oX[.{.{.[.oXW.B     B R..X].]. X|.OX~.'   i 8 # $   F v.B.M.N.N.N.N.",
"@XK.z.V.N.N.N.C.b.Y A U K - 7   W U.~.R.Q.].]. XQ.X.R R ..Y._.^././.^._.Y...R R X.Q. X].].Q.R.~.U.W   7 - K U A Y b.C.N.N.N.N.N.",
"@XK.z.V.N.N.N.N.N.b.v.n.h.K   = 6 W ' N X.Q. X].].Q.R.W.Y.s.t.u.y.y.u.t.s.Y.W.R.Q.].]. XQ.X.N ' W 6 =   K h.n.v.b.N.N.N.N.N.N.N.",
"@XK.z.V.N.N.N.N.N.B.B.S.n.L   > .       R R. X'.].|.|.XX).r.,.2.1.1.2.,.r.).XX|.|.].'. XR.R       . >   L n.S.B.B.N.N.N.N.N.N.N.",
"@XK.z.V.N.N.N.N.N.B.B.S.n.L   > .       R W.oX[.{. X|.XX).a.4.w.0.0.w.4.a.).XX|. X{.[.oXW.R       . >   L n.S.B.B.N.N.N.N.N.N.N.",
"@XK.z.V.N.N.N.N.N.b.v.n.h.K   = 6 W ' B ..Y._.^.^.Q.R.W.Y.:.%.*.*.*.*.%.:.Y.W.R.Q.^.^._.Y...B ' W 6 =   K h.n.v.b.N.N.N.N.N.N.N.",
"@XK.z.V.N.N.N.C.b.Y A U K - 7   W U.~.W.Y.s.r.p.>.| T / Q n c c c c c c n Q / T | >.p.r.s.Y.W.~.U.W   7 - K U A Y b.C.N.N.N.N.N.",
"@XK.z.V.N.N.M.B.v.F   $ # 8 i   ' !.OX X).t.<.5.&.s                             s &.5.<.t.). XOX!.'   i 8 # $   F v.B.M.N.N.N.N.",
"@XK.z.V.N.C.B.S.n.Z             B !.OX X).t.<.5.&.s                             s &.5.<.t.). XOX!.B             Z n.S.B.C.N.N.N.",
"@XK.z.V.N.b.v.n.k.[ V ( ~ ~ ) B  .U.~.W.Y.s.r.p.>.| T / Q n c c c c c c n Q / T | >.p.r.s.Y.W.~.U. .B ) ~ ~ ( V [ k.n.v.b.N.N.N.",
"@XK.z.Z.b.Y G Z [ U.~.R.E.E.R.~.U. .E R ..Y._.^.^.Q.R.W.Y.:.%.*.*.*.*.%.:.Y.W.R.Q.^.^._.Y...R E  .U.~.R.E.E.R.~.U.[ Z G Y b.C.N.",
"@XK.z.D.b.S     V ~.OX|..X.X|.OX~.B     B W.oX].[. X|.oX).a.4.w.0.0.w.4.a.).oX|. X[.].oXW.B     B ~.OX|..X.X|.OX~.V     S b.C.N.",
"@XK.z.D.b.P $   ( R.|.`.].].`.|.R.)     ` W.oX].[.[.].{.^.r.,.2.1.1.2.,.r.^.{.].[.[.].oXW.`     ) R.|.`.].].`.|.R.(   $ P b.C.N.",
"@XK.z.D.b.L #   ~ R. X].].].]. XR.~     Q Y._.^./././.(.T.d.t.u.y.y.u.t.d.T.(./././.^._.Y.Q     ~ R. X].].].]. XR.~   # L b.C.N.",
"@XK.z.D.b.L #   ~ R. X].].].]. XR.~   . n :.p.y.y.y.u.t.d.T.(././././.(.T.d.t.u.y.y.y.p.:.n .   ~ R. X].].].]. XR.~   # L b.C.N.",
"@XK.z.D.b.P $   ( R.|.`.].].`.|.R.!   o z %.3.1.1.1.2.,.r.^.{.].[.[.].{.^.r.,.2.1.1.1.3.%.z o   ! R.|.`.].].`.|.R.(   $ P b.C.N.",
"@XK.z.D.b.S     V ~.OX|..X.X|.OX~.^   o v ;.e.0.0.0.w.4.a.).oX|. X X|.oX).a.4.w.0.0.0.e.;.v o   ^ ~.OX|..X.X|.OX~.V     S b.C.N.",
"@XK.z.Z.b.Y G Z [ U.~.R.E.E.R.~.U.W   o x #.-.*.*.*.*.%.:.Y.W.R.E.E.R.W.Y.:.%.*.*.*.*.-.#.x o   W U.~.R.E.E.R.~.U.[ Z G Y b.C.N.",
"@XK.z.V.N.b.v.n.k.[ V ( ~ ~ ! ^ W 6 . . % x v c c c c c n Q ~ ! ~ ~ ! ~ Q n c c c c c v x % . . 6 W ^ ! ~ ~ ( V [ k.n.v.b.N.N.N.",
"@XK.z.V.N.C.B.S.n.Z               & q q 9                                                 9 q q &               Z n.S.B.C.N.N.N.",
"@XK.z.V.N.N.M.B.v.F   $ # 8 q w &                 % 5 4 4 q q q q q q q q 4 4 5 %                 & w q 8 # $   F v.B.M.N.N.N.N.",
"@XK.z.V.N.N.N.C.b.Y A U K - . . 6 W ^ ~ Q n z v x % . . . . . . . . . . . . . . % x v z n Q ~ ^ W 6 . . - K U A Y b.C.N.N.N.N.N.",
"@XK.z.V.N.N.N.N.N.b.v.n.h.K @   W U.~.W.Y.:.%.;.#.x   4 . . . . . . . . . . 4   x #.;.%.:.Y.W.~.U.W   @ K h.n.v.b.N.N.N.N.N.N.N.",
"@XK.z.V.N.N.N.N.N.C.B.S.n.U $   _ !.OX X).i.3.q.=.v   4 . : : : : : : : : . 4   v =.q.3.i.). XOX!._   $ U n.S.B.C.N.N.N.N.N.N.N.",
"@XK.z.V.N.N.N.N.N.N.M.B.v.A     V !.OX X).i.3.q.=.v   4 .                 . 4   v =.q.3.i.). XOX!.V     A v.B.M.N.N.N.N.N.N.N.N.",
"@XK.z.V.N.N.N.N.N.N.N.C.b.Y G Z [ U.~.W.Y.:.%.;.#.x   2 - K L L L L L L K - 2   x #.;.%.:.Y.W.~.U.[ Z G Y b.C.N.N.N.N.N.N.N.N.N.",
"@XK.z.V.N.N.N.N.N.N.N.N.N.b.v.n.k.[ V _ Q n z v x % ;   K h.n.v.b.b.v.n.h.K   ; % x v z n Q _ V [ k.n.v.b.N.N.N.N.N.N.N.N.N.N.N.",
"@XK.z.V.N.N.N.N.N.N.N.N.N.C.B.S.n.C               . >   L n.S.B.C.C.B.S.n.L   > .               C n.S.B.C.N.N.N.N.N.N.N.N.N.N.N.",
"@XK.z.V.N.N.N.N.N.N.N.N.N.N.M.B.v.I # r q 4 4 4 4 . :   L v.B.M.N.N.M.B.v.L   : . 4 4 4 4 q r # I v.B.M.N.N.N.N.N.N.N.N.N.N.N.N."
};
