/* XPM */
static char *result[] = {
/* columns rows colors chars-per-pixel */
"64 64 220 2 ",
"   c #000000",
".  c #0B0301",
"X  c #0D0B04",
"o  c #150502",
"O  c #001104",
"+  c #061B07",
"@  c #00120A",
"#  c #000011",
"$  c #001412",
"%  c #200000",
"&  c #2D0000",
"*  c #320201",
"=  c #3A0200",
"-  c #3D0B00",
";  c #281606",
":  c #341706",
">  c #331D0B",
",  c #002207",
"<  c #012612",
"1  c #142D15",
"2  c #342407",
"3  c #3B230A",
"4  c #2F2414",
"5  c #3A2715",
"6  c #440000",
"7  c #470401",
"8  c #540100",
"9  c #5F0000",
"0  c #530B02",
"q  c #5A0E02",
"w  c #451402",
"e  c #5B1A06",
"r  c #6D0000",
"t  c #630801",
"y  c #7A0300",
"u  c #641102",
"i  c #751602",
"p  c #482808",
"a  c #54360D",
"s  c #472912",
"d  c #4C2D14",
"f  c #582D14",
"g  c #553116",
"h  c #5C3316",
"j  c #55361A",
"k  c #5B3418",
"l  c #672A00",
"z  c #662904",
"x  c #742C03",
"c  c #65340A",
"v  c #75370A",
"b  c #613618",
"n  c #633A1B",
"m  c #723C18",
"M  c #70421F",
"N  c #694824",
"B  c #744421",
"V  c #724A25",
"C  c #7F4C25",
"Z  c #7D542D",
"A  c #7F5A2E",
"S  c #850000",
"D  c #8C0000",
"F  c #950100",
"G  c #9C0100",
"H  c #960C00",
"J  c #871502",
"K  c #831903",
"L  c #8C1A03",
"P  c #9A1401",
"I  c #911A02",
"U  c #9B1E03",
"Y  c #B30A00",
"T  c #A21501",
"R  c #A81B01",
"E  c #9D2004",
"W  c #9D2A09",
"Q  c #833700",
"!  c #9A390D",
"~  c #933E1B",
"^  c #A42204",
"/  c #AC2404",
"(  c #A32D07",
")  c #BE2303",
"_  c #BA2805",
"`  c #A53C0E",
"'  c #B43409",
"]  c #B63411",
"[  c #C90000",
"{  c #D40000",
"}  c #C71D00",
"|  c #ED0300",
" . c #E11400",
".. c #CC2302",
"X. c #E5FEE1",
"o. c #CD2C06",
"O. c #D12201",
"+. c #D82603",
"@. c #D42D05",
"#. c #DB2B04",
"$. c #C73308",
"%. c #DD3106",
"&. c #D23308",
"*. c #E62700",
"=. c #F82300",
"-. c #F62A00",
";. c #F82C00",
":. c #E33307",
">. c #EB3407",
",. c #EA3508",
"<. c #F53506",
"1. c #F83606",
"2. c #FA3807",
"3. c #F43708",
"4. c #F93708",
"5. c #FD3A09",
"6. c #F43E10",
"7. c #974509",
"8. c #9C490E",
"9. c #844713",
"0. c #894713",
"q. c #8B4B14",
"w. c #964913",
"e. c #9C4E15",
"r. c #9C4F1B",
"t. c #9D5016",
"y. c #9D5319",
"u. c #A1490A",
"i. c #AD4210",
"p. c #A44A13",
"a. c #B34410",
"s. c #A15217",
"d. c #AA5113",
"f. c #A7541B",
"g. c #B75516",
"h. c #834E26",
"j. c #83552D",
"k. c #8A542A",
"l. c #8A5A2D",
"z. c #92572B",
"x. c #93592D",
"c. c #9A5C2E",
"v. c #875831",
"b. c #9A5E30",
"n. c #A74B22",
"m. c #A55728",
"M. c #A35C2C",
"N. c #B75F24",
"B. c #9E6232",
"V. c #A6612F",
"C. c #AE602A",
"Z. c #BB6327",
"A. c #A36332",
"S. c #A96533",
"D. c #AC6A36",
"F. c #B76B35",
"G. c #BF743C",
"H. c #C55F17",
"J. c #C05618",
"K. c #FD4212",
"L. c #F94717",
"P. c #F94A1A",
"I. c #FF511F",
"U. c #C4621D",
"Y. c #CB631C",
"T. c #CF6A1F",
"R. c #D3661B",
"E. c #D46A1F",
"W. c #D96A1D",
"Q. c #E26F1F",
"!. c #CE5023",
"~. c #FE5A26",
"^. c #CC6520",
"/. c #D56C20",
"(. c #DB6D20",
"). c #C56934",
"_. c #C2763D",
"`. c #CD773D",
"'. c #C4793F",
"]. c #C9793E",
"[. c #DA7139",
"{. c #F3632E",
"}. c #FF642D",
"|. c #E57222",
" X c #E97323",
".X c #F47925",
"XX c #E5FEE1",
"oX c #FC6C33",
"OX c #E4783D",
"+X c #F5783C",
"@X c #C67E42",
"#X c #CC7D41",
"$X c #D57E41",
"%X c #F57E40",
"&X c #E5FEE1",
"*X c #E5FEE1",
"=X c #FF892B",
"-X c #C78244",
";X c #CF8145",
":X c #D38143",
">X c #DA8545",
",X c #DC8847",
"<X c #DF8A48",
"1X c #E08947",
"2X c #E38B49",
"3X c #EA8E4B",
"4X c #F68544",
"5X c #FF8443",
"6X c #FF8A47",
"7X c #E7914C",
"8X c #ED924D",
"9X c #F4954E",
"0X c #FE954E",
"qX c #ED9851",
"wX c #F79750",
"eX c #F59A51",
"rX c #FD9B52",
"tX c #FFA256",
"yX c #FFA658",
"uX c #FFA959",
/* pixels */
"XXXX&XXX&XXXXXXXXXXXXXXXXXXX&X*X=X=XXX/.t.2                                         2 t.W.&X=X&X&XXXXXXXXX&XXX&XXXXXXXXXXXXXXXXX",
"XXXXXXXXXXXXXX&X&XXXXXXXXXXXXX*X*X*X.X/.t.3                                         3 s.W..X=X=X=XXXXXXXXXXXXXXXXXXXXX&X*XXXXXXX",
"XX&X&XXX&XXXXX&XXX&XXXXX&X&XXXXX&XXX XY.p.x = & 6 0 0 0 0 0 0 0 0 0 0 0 0 0 0 6 & = x p.Y. XXX&X&X&X&X&X&XXXXXXX&XXX&XXXXXXXXXXX",
"XXXXXXXXXXXXXXXXXXXXXX*X*X*X&X.X X/.H.g.i.( P H P E U E E E E E E E E U E E E P H P W i.g.U./.|..X&X&X&X&X&XXX&XXXXXXXXXXXXXXXXX",
"XX&X&XXXXXXXXXXXXXXXXX&X*X=X&X XU.y.0.! ' $.o.@.o.o.o.o.X.o.o.o.o.o.o.o.o.o.o.o.o.o.X.' ! 0.y.U.|.&X=X=X&XXXXXXXXXXXXXXXXXXXXXXX",
"XXXXXXXX&XXX&XXX&XXXXXXX*X*XXX/.t.a w J ) :.<.1.3.>.3.3.,.3.3.>.,.,.3.3.,.>.>.3.4.4.:.X.L w a y./.&X*X*X&X&XXXXXXXXXXXXX*XXXXXXX",
"XXXXXXXXXX&XXXXXXXXXXXXXXXXX XU.0.w 7 G ..<.5.5.5.5.5.5.5.5.5.5.5.5.5.5.5.5.5.5.5.5.3...F 7 - 0.U. XXXXX&XXXXX&XXXXX*XXXXXXXXXXX",
"XX&XXX&XXXXXXX&X&X&XXX.X|.(.^.d.! J F Y #.4.K.5.5.5.5.5.5.5.5.5.5.5.5.5.5.5.5.5.5.5.4.*.Y F J ! d.Y./.|..XXX&X&X*XXXXXXXXXXXXXXX",
"XXXXXXXXXX&X&X&X*X*X.X|.^.f.e.` ' ) ..#.>.1.5.5.5.4.2.5.5.5.5.4.5.2.5.5.5.5.5.5.5.5.4.>.#.O.) ' ` w.f.U.|..X&X&XXXXXXXXXXXXX*XXX",
"&XXX&XXXXXXXXX&X*X&X.X/.y.c e L X.:.<.4.1.1.4.4.4.4.2.2.4.4.4.4.2.2.4.2.2.1.1.1.4.4.4.4.2.<.:.X.I z c s./..X=X&X*XXXXXXXXXXXXXXX",
"XXXX&XXXXXXXXX&X*X*X.X^.9.O   S } <.5.5.5.4.4.4.2.2.1.1.4.4.4.4.4.2.4.4.1.1.1.1.4.4.4.5.5.K.<...S   @ 9.^..X&X=XXXXXXXXXXXXXXXXX",
"&XXXXXXXXX&XXX&X*X*X.X^.9.    S O.1.K.K.5.5.4.<.<.<.;.<.;.<.;.;.<.;.;.<.<.;.;.<.<.4.5.5.5.5.4.} S     9.Y..X&X=X*XXXXXXXXXXXXXXX",
"XXXX&XXXXXXX&X=X=X=XXXE.q.+   D O.4.5.K.5.4.1.1.;.=.=.=.=.=.=.=.=.=.=.=.=.=.=.;.<.1.4.5.K.5.<.O.D   + q.^.XX=X=X*XXXXXXXXXXXXX*X",
"XXXXXXXXXXXX&X&X=X=X.X/.e.2 & D ..<.5.5.5.4.1.1.;.;.;.=.-.-.;.;.=.;.-.-.=.;.;.<.<.1.4.5.K.5.<...D & 2 w./.XX=X&X*X*XXXXXXXXXXXXX",
"&XXX&XXXXXXXXXXXXXXX XU.9.2 & S ) #.<.<.4.4.5.6.L.L.P.P.P.P.P.P.P.P.P.P.P.P.P.L.5.4.2.<.1.<.:.) S * 2 0.H.|.XXXXXXXXXXXXXXXXXXXX",
"XXXXXX&X&XXXXX.X XW.U.s.v : % t F ) O.*.-.<.5.~.~.oXoXoXoXoXoXoXoXoXoXoXoXoXoX~.I.K.1.-.*.O.) F t o 2 v r.^.(. X.XXXXXXX*XXXXXXX",
"XXXXXXXX*XXXXX|.^.g.0.v p ;   * 8 y G [  .-.P.}.+X5X6X6X5X5X5X6X6X6X5X6X6X6X5XoX~.P.-. .[ G y 0 *   ; p v 0.g.^.|.XX&X*X&X&XXXXX",
"XX*XXXXX*X*X.X/.d.v :     .         r G { -.P.oX+X0XrXrXrXrX0XrX0X0X0XrXrX0X0X%XoXP.-.{ G t         X     : v d./..X*X*X*XXX&XXX",
"XXXXXX*X*X*X.X^.w.:         X + < < k W } +.L.{.%X3XqXqX8XqX8X8X8XqXqXqXqXqX3X%X{.L.*.} W h < < + X         - w.^..X&X*X*XXXXXXX",
"XXXXXX*X*X*X.XR.7.          > j N A b.m.] } o.!.).@X-X-X-X@X;X@X@X@X@X-X-X-X@XF.!.o.} ] n.c.A N j >           0.R..X*X*X*X&XXXXX",
"XXXXXX&X=X=XXX/.7.          s h.D.G.].F.p.F S K ~ j.j.v.l.j.l.l.l.l.k.l.v.l.k.~ K S H n.F.]._.D.Z s           7.E..X*X=X*XXXXXXX",
"XXXX&XXX*X*X.X/.8.-         g b.;X8X8X`.m.e   # . : > 2 > > > > > > > > 2 > : .     u c.#X3X3X#Xb.g         - e.E.XX=X&X*XXXXXXX",
"&XXXXXXXXXXX X^.n.M 4       g A.>XrXrX<XD.N @   @ > : : > > : : > : > > > > > O   @ N D.<XrX0X,XA.g       4 m n.^. XXXXXXXXXXXXX",
"&X&XXX.XQ.W.Y.).Z.V.l.N     3 c.>XeXrX7X-XB.Z j.l.x.x.z.k.k.k.k.k.k.k.k.z.x.x.l.Z A B.@X7XrXrX>Xc.3     N l.V.Z.).^.W.|..XXXXX*X",
"&X&X.X|.U.d.t.C._.`.'.A.j     k.`.9XtX9X2X-X'.'.;X:X:X:X#X]._.@X_.@X#X#X#X$X#X#X].'.@X2XwXrX9X#Xk.    g B.'.$X_.m.s.d.H.Q.XX&X&X",
"=X&X.XR.u.l b c.`.8X3X'.C     h.'.8XrXrX9X9X8X9X8X9X9X8X9X3X8X3X3X3X3XwX9X9X9X9X9X3X8X9XrXrX7X].h.    h._.3X3X#Xc.b l u.R..X&X=X",
"*X&X.XY.Q   $ v.:XwXrX,XS.n b c.].8XrXtXrXrXrXrXwX9X9X9XrXrXrXrXrXrXrXeXwXwXwXwXrXrXrXrXtXrX9X].c.b n S.,XrXeX:Xl.$   Q U..X&X=X",
"=X&X.XH.x   # v.:XwXtX9X`.D.A.G.,X9XrXrXrXrXrX9X2X>X>X2X9XrXtXtXrXrXrXwX2X>X:X2X9XrXtXtXrXrX9X>XG.S.S.#X9XrXrX:Xv.#   x H..X&X&X",
"&X&X.XH.x   # j.:XrXtXrX8X,X>X1X3X9XrXrXrXrX9X,X_.V.A._.,X9XrXtXtXrX9X<X_.S.S._.,XwXrXrXrXrX9X8X,X:X>X8XrXtXrX;Xj.#   x H..X&X*X",
"=X*X.XY.Q   $ j.@XeXrXtXrX9X9X9XwXwXrXrXrXrX8X;Xc.n n c.#X9XrXrXtXrX8X#Xc.b n b.`.9XrXtXwXrXwX9XwX9XwXrXtXrX9X@Xj.$   Q U..X&X*X",
"&X=X.XR.u.l h x._.2X9XwX9X9X9X9XwXwXrXrXrXrX8X_.9.    h._.8XrXtXtXrX7X].C     C _.3XrXrXrXwXwXwX9XwX9XwXwXwX3X_.x.k l u.R..X*X*X",
"&X&X.XQ.H.d.r.m.F.].#X:X:X:X,X3X9XwXrXrXtXrX8X_.V     V _.7XrXyXyXrX8XG.B     B G.8XtXtXrXrXwX9X3X,X:X#X:X$X_.F.M.t.d.Y.Q..X&X&X",
"&XXXXX.X|.W.^.Z.N.c.b.x.x.b.F.#X3XrXtXtXtXrX8XG.B     B @XqXtXyXyXtX8X@XV     B G.3XrXtXtXtXrX3X].F.c.x.x.b.b.C.Z.^.E.Q..XXXXX&X",
"XXXXXXXXXXXX XY.f.m 5 $   > B D.:X9XtXtXtXrX3X_.C     h.G.qXrXyXtXtX7X'.C     C _.8XrXtXtXtX9X:XD.B >   @ 5 m f.^. XXXXXXXXXXXXX",
"&XXXXX&X=X&XXXR.e.-         ; k.G.1XwXrXrXrX8X#Xb.n b c.`.3X0X0XrX0X3X`.c.b n c.#X9XrXrXrX9X1X_.l.;         7 u.W.XX&X=X&X&XXXXX",
"XXXXXX=X=X=XXXW.7..           b c.G.:X3XrXrXwX2X@XS.S.).[.%X5X5X5X5X+XOX).A.D.'.2XrXrXwX3X>XG.c.n           . 7.W.XX=X=X=X&XXXXX",
"XXXX&X=X=X=XXXE.7..           ; b k.D.$X3XrXrXrX2X,X:XOXOXoX~.}.}.}.oXOXOX$X,X3XrXrXrX7X#XF.k.n ;           . 7.R.XX=X=X&XXXXXXX",
"XXXXXX&X*X*XXXE.8.-               ; B D.:XwXtXtXrXeX9X4XoX~.K.5.5.5.~.oX%X8XwXrXtXrXwX:XD.B ;               - 8.R.XX=X=X=XXXXXXX",
"XXXXXXXXXXXX|.^.f.m 5 4 d g d .     ; k.G.2XwXeXwXeX4X%X{.6.| | | | 6.{.+X9XwXeXrX9X1X_.k.;     . s h d 4 5 m m.R. XXXXXXXXXXXXX",
"&XXXXX.X|.(.^.^.M.M.b.B.B.A.x.M o     n b.@X:X>X>X:X$X[.!.o.{ [ [ [ o.!.[.:X>X,X>X:X_.b.n     o B x.b.A.B.b.c.N.Z.^.W.Q..XXX&X&X",
"&X&X.XQ.H.d.r.m.F.].:X:X:X:X_.A.B .   > B x.A.A.A.A.A.n.~ U G G G G E ` m.M.A.S.A.A.x.B >   . M A._.:X:X:X$X].F.M.s.d.H.Q.XXXX&X",
"&X=X.XR.u.l b x._.2X9XrXwX9X1X_.x.d     ; d h k j g g f e q 0 8 8 8 e e f g g j j g d ;     d x._.2X9XrXwX9X2X_.x.b l u.R..XXX=X",
"&X&X.XU.Q   @ j.@X9XtXyXtXtX9X:XA.k                                                         h A.$XwXtXtXyXtX9X@Xj.$   Q U..X&X=X",
"=X&X.XU.x   # Z @XrXtXuXuXyXrX:XA.h                               #                         h A.:XwXyXuXuXtXrX#XZ #   x H..X&X&X",
"=X&X.XH.x   # Z @XwXtXuXuXyXrX>XA.k                                                         h A.>XrXtXuXuXtXwX-XZ #   x H..X&X*X",
"&X&X.XH.Q   $ j.@X9XtXtXtXrX9X$XB.h                         . . .                           h B.:X9XtXtXyXrX9X@Xj.$   Q Y..X&X*X",
"=X&X.XR.u.l h x._.2X9XwXrX9X2X_.x.d     & 0 q q q q 0 7 * .         o & 7 0 0 q q q 0 &     d x._.2X9XwXrX9X3X_.x.h l u.R..X*X*X",
"&X&XXXQ.H.d.t.M.F._.@X;X:X;X_.A.V <   = y U / / / ( E K q .         . q K E ^ / / / U y 6   < V A.'.:X:X#X@X_.F.M.r.d.U.Q..X&X&X",
"&X&XXX.X|.W.^.N.M.k.l.l.B.B.x.V 1 @   r R @.%.:.:.%.o./ i             i / o.:.:.:.%.o.R r   @ 1 V x.B.c.l.v.x.M.Z.Y.E.Q..XXXXX&X",
"&X&XXXXX&X&X X^.r.h $ $ 5 j d 1 @   * L X.,.5.5.5.5.,.o.L *         = L X.>.4.5.5.5.,.X.L *   @ 1 s g 5 $ $ k y.Y.|.XXXXXXXXXXXX",
"XXXXXX&X*X*XXXW.d.l .             & i ( o.,.4.5.5.5.,.o.^ i -     - i ^ o.>.5.5.5.5.,.o./ i &               l d.W.XX=X=X&X&XXX&X",
"XXXXXX=X&X=XXX XY.u.x 0       & r L ^ _ X.o.@.%.@.@.o.X._ / U E E U / _ X.o.&.&.%.@.o.X._ ( L r &       0 v u.Y. X&X=X&X&X&XXXXX",
"XXXXXX&X=X&XXX.X XW.g.8.z     r T X.o.X./ E L L L L E / X.&.%.%.%.%.o.X./ E L L L L E / X.o.X.T r     z 8.g.R. X.XXX=X&X=XXXXXXX",
"XXXXXXXX&XXXXXXX*X&X XU.9.2 & D ..,.>.@.^ u         u E o.,.2.5.5.4.>.o.E u         q ^ @.,.,...D & 2 0.U. X.X&XXXXXXX&XXXXXXXXX",
"XXXXXX&XXX&XXX=X=X*X.XE.e.2 & F +.5.4.%./ u         u E o.,.2.5.5.4.,.o.R q         u / %.4.2.+.F * 2 e./.&X=X=X&X&XXXXXXXXXXXXX",
"XXXXXXXXXXXX&X&X=X=X&XE.q.+   F +.5.5.3.$.^ K K K L E / ) ..@.+.+.+.o.) / U L K K L ( o.<.5.5.+.F   + q.E.&X=X*X=X&XXX&XXXXXXXXX",
"XXXX&XXXXXXXXX*X*X*X.XT.M     D O.4.5.5.3.@.o.o.&.@.o.) R G D S D D G R X.o.o.&.o.o.&.,.5.5.5.O.S     9.^..X*X*X&XXX&XXXXXXXXXXX",
"&XXXXXXXXXXXXX*X*X&X.XY.q.O   S ..3.5.5.5.4.3.4.5.4.,.o.P t   .     9 U ..>.5.5.4.3.4.5.5.K.<.} S   @ 9.^..X*X*X&XXXXXXXXX&X&XXX",
"XXXX&XXXXXXXXX&X*X*X.XE.s.c e I X.:.<.<.3.4.4.4.5.4.,.$.( z , , , , z W o.>.4.5.4.3.<.<.1.<.:.X.I e c y./..X*X*X&XXXXXXXXXXXXXXX",
"*XXXXXXXXXXXXX&X*X&X.X|.U.f.8.i.' o.o.@.&.@.@.%.#.#.&.$.i.w.q.M 9.q.w.i.$.&.#.#.#.%.@.@.@.@.$.' ` e.f.^.|..X*X&X&X&X&XXXXXXX&XXX",
"XXXXXXXX&XXXXX&X&X&XXX.X XW.Y.g.i.( P H U ^ ^ R T T ( a.J.Y.^././.^.Y.J.a.( T T R ^ ^ U H P ( i.J.Y.W. X.XXX&X*X&XXX&XXX&XXX&XXX",
"XXXXXXXXXXXXXX&X&XXXXX&X*X&X XY.p.x = & 6 0 0 6 & = x p.^. XXX&XXXXX XY.s.x = & 6 0 0 6 & = x p.Y. XXX&XXXXXXXXX&XXXXXXXXXXXXXXX",
"XXXXXXXXXXXXXX&X&XXXXX&X=X&XXX/.e.3                 p y./..X=X=X=X*XXX/.t.3                 p t.W..X*X=X*X&XXXXXXXXXXXXXXX&X&XXX",
"*XXXXXXX&XXXXXXXXXXXXX&X=X=XXX(.t.2                 2 e./.&X*X=X=X=XXX/.t.2                 2 e.E.XX=X=X*X&XXX&XXXXX&XXXXXXXXXXX"
};
