/* XPM */
static char *result[] = {
/* columns rows colors chars-per-pixel */
"64 64 19 1 ",
"  c #ABAAAB",
". c #ABAAAC",
"X c #ACACAC",
"o c #B0B1AF",
"O c #B0B1B0",
"+ c #B0B2B0",
"@ c #B1B3B0",
"# c #B1B3B1",
"$ c #B4B8B3",
"% c #E0F7DC",
"& c #E2FADE",
"* c #E2FADF",
"= c #E2FBDF",
"- c #E3FBDF",
"; c #E5FDE1",
": c #E5FEE1",
"> c #E5FFE1",
", c #E6FFE1",
"< c #E6FFE2",
/* pixels */
"::::-**-::::::::::::::::::::-**-::::-**-::::::::::::::::::::-***",
"::<=$++$=<::::::::::::::::<=$++$=>>=$++$=<::::::::::::::::<=$o#@",
"::<&+..+&<::::::::::::::::<&+..+&>>&+..+&<::::::::::::::::<&+ XX",
"::<&+..+&<::::::<<<<::::::<&+..+&>>&+..+&<::::::<<<<::::::<&+ XX",
"::<=$++$=<::::::-**-::::::<=$++$=>>=$++$=<::::::-**-::::::<=$o#@",
"::::-**-::::::<=$++$=<::::::-**-::::-**-::::::<=$++$=<::::::-***",
"::::<<<<::::::<&+..+&<::::::<<<<::::<<<<::::::<&+..+&<::::::<<<<",
"::::::::::::::<&+..+&<::::::::::::::::::::::::<&+..+&<::::::::::",
"::::::::::::::<=$++$=<::::::::::::::::::::::::<=$++$=<::::::::::",
"::::::::::::::::-**-::::::::::::::::::::::::::::-**-::::::::::::",
"::::::::::::::::<<<<::::::::::::::::::::::::::::<<<<::::::::::::",
"<<<<::::::::::::::::::::::::::::<<<<::::::::::::::::::::::::::::",
"***-::::::::::::::::::::::::::::-**-::::::::::::::::::::::::::::",
"@#o$=<::::::::::::::::::::::::<=$++$=<::::::::::::::::::::::::::",
"XX +&<:::::::::::::::::::::::;>&+..+&<::::::::::::::::::::::::::",
"XX +&<::::::::::::::::::::::<><-+..+&<::::::::::::::::::::::<<<<",
"@#o$=<::::::::::::::::::::::-&-%$+O$=<::::::::::::::::::::::-***",
"***-::::::::::::::::::::::<=$O+$%-&-::::::::::::::::::::::<=$o#@",
"<<<<::::::::::::::::::::::<&+..+-<><::::::::::::::::::::::<&+ XX",
"::::::::::::::::::::::::::<&+..+&>;:::::::::::::::::::::::<&+ XX",
"::::::::::::::::::::::::::<=$++$=<::::::::::::::::::::::::<=$o#@",
"::::::::::::::::::::::::::::-**-::::::::::::::::::::::::::::-***",
"::::::::::::::::::::::::::::<<<<::::::::::::::::::::::::::::<<<<",
"::::<<<<::::::::::::::::::::::::::::<<<<::::::::::::::::::::::::",
"::::-**-::::::::::::::::::::::::::::-**-::::::::::::::::::::::::",
"::<=$++$=<::::::::::::::::::::::::<=$++$=<::::::::::::::::::::::",
"::<&+..+&<::::::::::::::::::::::::<&+..+&<::::::::::::::::::::::",
"::<&+..+&<::::::::::::::::::::::::<&+..+&<::::::::::::::::::::::",
"::<=$++$=<::::::::::::::::::::::::<=$++$=<::::::::::::::::::::::",
"::::-**-::::::::::::::::::::::::::::-**-::::::::::::::::::::::::",
"::::>,,>::::::::::::::::::::::::::::>,,>::::::::::::::::::::::::",
"::::>,,>::::::::::::::::::::<<<<::::>,,>::::::::::::::::::::<<<<",
"::::-**-::::::::::::::::::::-**-::::-**-::::::::::::::::::::-***",
"::<=$++$=<::::::::::::::::<=$++$=>>=$++$=<::::::::::::::::<=$o#@",
"::<&+..+&<::::::::::::::::<&+..+&>>&+..+&<::::::::::::::::<&+ XX",
"::<&+..+&<::::::<<<<::::::<&+..+&>>&+..+&<::::::<<<<::::::<&+ XX",
"::<=$++$=<::::::-**-::::::<=$++$=>>=$++$=<::::::-**-::::::<=$o#@",
"::::-**-::::::<=$++$=<::::::-**-::::-**-::::::<=$++$=<::::::-***",
"::::<<<<::::::<&+..+&<::::::<<<<::::<<<<::::::<&+..+&<::::::<<<<",
"::::::::::::::<&+..+&<::::::::::::::::::::::::<&+..+&<::::::::::",
"::::::::::::::<=$++$=<::::::::::::::::::::::::<=$++$=<::::::::::",
"::::::::::::::::-**-::::::::::::::::::::::::::::-**-::::::::::::",
"::::::::::::::::<<<<::::::::::::::::::::::::::::<<<<::::::::::::",
"<<<<::::::::::::::::::::::::::::<<<<::::::::::::::::::::::::::::",
"***-::::::::::::::::::::::::::::-**-::::::::::::::::::::::::::::",
"@#o$=<::::::::::::::::::::::::<=$++$=<::::::::::::::::::::::::::",
"XX +&<:::::::::::::::::::::::;>&+..+&<::::::::::::::::::::::::::",
"XX +&<::::::::::::::::::::::<><-+..+&<::::::::::::::::::::::<<<<",
"@#o$=<::::::::::::::::::::::-&-%$+O$=<::::::::::::::::::::::-***",
"***-::::::::::::::::::::::<=$O+$%-&-::::::::::::::::::::::<=$o#@",
"<<<<::::::::::::::::::::::<&+..+-<><::::::::::::::::::::::<&+ XX",
"::::::::::::::::::::::::::<&+..+&>;:::::::::::::::::::::::<&+ XX",
"::::::::::::::::::::::::::<=$++$=<::::::::::::::::::::::::<=$o#@",
"::::::::::::::::::::::::::::-**-::::::::::::::::::::::::::::-***",
"::::::::::::::::::::::::::::<<<<::::::::::::::::::::::::::::<<<<",
"::::<<<<::::::::::::::::::::::::::::<<<<::::::::::::::::::::::::",
"::::-**-::::::::::::::::::::::::::::-**-::::::::::::::::::::::::",
"::<=$++$=<::::::::::::::::::::::::<=$++$=<::::::::::::::::::::::",
"::<&+..+&<::::::::::::::::::::::::<&+..+&<::::::::::::::::::::::",
"::<&+..+&<::::::::::::::::::::::::<&+..+&<::::::::::::::::::::::",
"::<=$++$=<::::::::::::::::::::::::<=$++$=<::::::::::::::::::::::",
"::::-**-::::::::::::::::::::::::::::-**-::::::::::::::::::::::::",
"::::<<<<::::::::::::::::::::::::::::<<<<::::::::::::::::::::::::",
"::::::::::::::::::::::::::::::::::::::::::::::::::::::::::::::::"
};
