/* XPM */
static char *result[] = {
/* columns rows colors chars-per-pixel */
"64 64 151 2 ",
"   c #261F27",
".  c #282129",
"X  c #2C292C",
"o  c #2C292D",
"O  c #2D2B2E",
"+  c #2F2C2F",
"@  c #302E31",
"#  c #312E31",
"$  c #312E32",
"%  c #312F32",
"&  c #322F32",
"*  c #323033",
"=  c #333033",
"-  c #333133",
";  c #323332",
":  c #343234",
">  c #353336",
",  c #353535",
"<  c #353634",
"1  c #363536",
"2  c gray21",
"3  c #373737",
"4  c #373837",
"5  c gray22",
"6  c #393939",
"7  c #393A39",
"8  c #3A3A3A",
"9  c #3A3B3A",
"0  c #3C3B3C",
"q  c #3C3C3C",
"w  c gray24",
"e  c #3E3E3E",
"r  c #403E40",
"t  c #413F41",
"y  c gray25",
"u  c #414141",
"i  c gray26",
"p  c #434343",
"a  c #444544",
"s  c #464646",
"d  c gray28",
"f  c #474847",
"g  c #484847",
"h  c #4B4F4B",
"j  c #4C504B",
"k  c #4E544D",
"l  c #4E544E",
"z  c #4F544E",
"x  c #4F554F",
"c  c #50554F",
"v  c #515151",
"b  c #515650",
"n  c #525751",
"m  c #535852",
"M  c #585D58",
"N  c #595E59",
"B  c #646164",
"V  c #646264",
"C  c #656466",
"Z  c #666466",
"A  c #666566",
"S  c #676767",
"D  c #616960",
"F  c #676668",
"G  c #686768",
"H  c #686868",
"J  c #696869",
"K  c DimGray",
"L  c #6A696A",
"P  c #6A6A6A",
"I  c #6A6B6A",
"U  c gray42",
"Y  c #6C6B6C",
"T  c #6C6C6C",
"R  c #6C6D6C",
"E  c #6D6D6D",
"W  c #6D6E6D",
"Q  c gray43",
"!  c #6E6E6F",
"~  c #6F6E6F",
"^  c #6F6F6F",
"/  c gray44",
"(  c #717171",
")  c #737673",
"_  c #747773",
"`  c #747474",
"'  c gray46",
"]  c #747874",
"[  c #767975",
"{  c #767A76",
"}  c #777A76",
"|  c #777B77",
" . c #80857F",
".. c gray65",
"X. c #A7A7A7",
"o. c #A8A7A8",
"O. c gray66",
"+. c #A9A8A9",
"@. c #A9A9A9",
"#. c #AAA9AB",
"$. c #ABA9AB",
"%. c #AAAAAA",
"&. c #AAABAA",
"*. c #ABAAAB",
"=. c gray67",
"-. c #ABACAB",
";. c #ABABAC",
":. c #ACABAC",
">. c #ACACAC",
",. c #ACACAD",
"<. c #ADACAD",
"1. c gray68",
"2. c #ADAFAC",
"3. c #ADAFAD",
"4. c #AEAEAE",
"5. c #AEAFAE",
"6. c #AFAFAF",
"7. c #AEB0AE",
"8. c #AFB0AF",
"9. c #AFB1AF",
"0. c #B0B1AF",
"q. c #B0B1B0",
"w. c #B0B2B0",
"e. c #B1B3B0",
"r. c #B1B3B1",
"t. c #B2B4B1",
"y. c #B2B4B2",
"u. c #B4B8B3",
"i. c #DBF2D7",
"p. c #DCF4D8",
"a. c #DDF5D9",
"s. c #DFF8DB",
"d. c #DFF8DC",
"f. c #E0F7DC",
"g. c #E0F8DC",
"h. c #E0F9DC",
"j. c #E0F9DD",
"k. c #E1F9DD",
"l. c #E1FADD",
"z. c #E2FADE",
"x. c #E2FADF",
"c. c #E2FBDF",
"v. c #E3FBDF",
"b. c #E4FCE0",
"n. c #E4FDE0",
"m. c #E5FDE1",
"M. c #E5FEE1",
"N. c #E5FFE1",
"B. c #E6FFE2",
"V. c #E7FFE3",
"C. c #E8FFE4",
/* pixels */
"M.M.B.c.u.w.w.u.c.B.M.M.M.M.M.M.M.M.M.M.g.g.g.g.g.g.g.g.g.g.g.g.g.d.h.a.2.O.O.3.z.B.M.M.M.M.M.M.M.M.M.M.M.M.M.M.M.M.M.M.M.M.M.M.",
"M.M.M.M.v.x.x.v.M.M.M.M.M.M.M.M.M.M.B.g.D h n b b b b b b b b b b b b c d f r N g.B.M.M.M.M.M.M.M.M.M.M.M.M.M.M.M.M.M.M.M.M.M.M.",
"M.M.M.M.B.B.B.B.M.M.M.M.M.M.M.M.M.n.B.s.j   : % % % % % % % % % % % $ & 1 5 o l s.B.n.M.M.M.M.M.M.M.M.M.M.M.M.M.M.M.M.M.M.M.M.M.",
"M.M.M.M.M.M.M.M.M.M.M.M.B.B.B.B.B.B.C.l.x O 7 3 3 3 3 3 3 3 3 3 3 3 3 3 2 5 X z l.C.B.B.B.B.B.B.M.M.M.M.M.M.M.M.M.M.M.M.M.M.M.M.",
"M.M.M.M.M.M.M.M.M.M.M.M.g.g.g.g.g.s.k.i.M r g s s s s s s s s s s s s s s g r M i.k.s.g.g.g.g.g.M.M.M.M.M.M.M.M.M.M.M.M.M.M.M.M.",
"M.M.M.M.M.M.M.M.M.M.B.g.D h n b b b k M ..%.@.@.@.@.@.@.@.@.@.@.@.@.@.@.@.@.%...M k b b b n h D g.B.M.M.M.M.M.M.M.M.M.M.M.M.M.M.",
"M.M.M.M.M.M.M.M.M.n.B.s.j   : % % = X t %.6.4.4.4.4.4.4.4.4.4.4.4.4.4.4.4.4.6.%.t X = % % :   j s.B.n.M.M.M.M.M.M.M.M.M.M.M.M.M.",
"M.M.M.M.M.M.M.M.B.B.C.l.x O 7 3 3 5 ; a o.<.;.:.:.:.:.:.:.:.:.:.:.:.:.:.:.;.<.o.a ; 5 3 3 7 O x l.C.B.B.M.M.M.M.M.M.M.M.M.M.M.M.",
"M.M.M.M.M.M.M.M.g.s.k.i.M r g s s d p v 3.t.w.e.e.e.e.e.e.e.e.e.e.e.e.e.e.w.t.3.v p d s s g r M i.k.s.g.M.M.M.M.M.M.M.M.M.M.M.M.",
"M.M.M.M.M.M.B.g.D j x M ..%.@.@.@.@.o.3.f.v.z.x.x.x.x.x.x.x.x.x.x.x.x.x.x.z.v.f.3.o.@.@.@.@.%...M x j D g.B.M.M.M.M.M.M.M.M.M.M.",
"M.M.M.M.M.n.B.s.j . + t %.6.4.4.4.5.1.y.v.B.N.B.B.B.B.B.B.B.B.B.B.B.B.B.B.N.B.v.y.1.5.4.4.4.6.%.t + . j s.B.n.M.M.M.M.M.M.M.M.M.",
"M.M.M.M.B.B.C.l.x + < a o.<.;.:.:.:.$.9.z.N.m.M.M.M.M.M.M.M.M.M.M.M.M.M.M.m.N.z.9.$.:.:.:.;.<.o.a < + x l.C.B.B.M.M.M.M.M.M.M.M.",
"M.M.M.M.g.s.k.i.M t a v 3.t.w.e.e.r.0.u.c.B.M.M.M.M.M.M.M.M.M.M.M.M.M.M.M.M.B.c.u.0.r.e.e.w.t.3.v a t M i.k.s.g.M.M.M.M.M.M.M.M.",
"M.M.B.g.D j x M ..%.o.3.f.v.z.x.x.x.x.v.M.M.M.M.M.M.M.M.M.M.M.M.M.M.M.M.M.M.M.M.v.x.x.x.x.z.v.f.3.o.%...M x j D g.B.M.M.M.M.M.M.",
"M.m.B.g.h   O r %.6.<.t.v.B.N.B.B.B.B.B.M.M.M.M.M.M.M.M.M.M.M.M.M.M.M.M.M.M.M.M.B.B.B.B.B.N.B.v.t.<.6.%.r O   h g.B.m.M.M.M.M.M.",
"M.M.B.g.n : 7 g @.4.=.w.z.N.m.M.M.M.M.M.M.M.M.M.M.M.M.M.M.M.M.M.M.M.M.M.M.M.M.M.M.M.M.M.M.m.N.z.w.=.4.@.g 7 : n g.B.M.M.M.M.M.M.",
"M.m.B.g.b % 3 s @.4.:.e.z.B.M.M.M.M.M.M.M.M.M.M.M.M.M.M.M.M.M.M.M.M.M.M.M.M.M.M.M.M.M.M.M.M.B.z.e.:.4.@.s 3 % b g.B.m.M.M.M.M.M.",
"M.m.B.g.b % 3 s @.4.:.e.z.B.M.M.M.M.M.M.M.M.M.M.M.M.M.M.M.M.M.M.M.M.M.M.M.M.M.M.M.M.M.M.M.M.B.z.e.:.4.@.s 3 % b g.B.m.M.M.M.M.M.",
"M.m.B.g.b % 3 s @.5.:.r.z.N.m.M.M.M.M.M.M.M.M.M.M.M.M.M.M.M.M.M.M.M.M.M.M.M.M.M.M.M.M.M.M.m.N.z.r.:.5.@.s 3 % b g.B.m.M.M.M.M.M.",
"M.m.B.g.b % 3 s o.1.$.q.v.B.N.B.B.B.B.B.M.M.M.M.M.M.M.M.M.M.M.M.M.M.M.M.M.M.M.M.B.B.B.B.B.N.B.v.q.$.1.o.s 3 % b g.B.m.M.M.M.M.M.",
"M.m.B.g.b % 3 d 2.y.9.u.f.v.z.x.x.x.x.v.M.M.M.M.M.M.M.M.M.M.M.M.M.M.M.M.M.M.M.M.v.x.x.x.x.z.v.f.u.9.y.2.d 3 % b g.B.m.M.M.M.M.M.",
"M.m.B.g.b * - c a.b.v.f.u.q.r.e.e.r.0.u.c.B.M.M.M.M.M.M.M.M.M.M.M.M.M.M.M.M.B.c.u.0.r.e.e.r.q.u.f.v.b.a.c - * b g.B.m.M.M.M.M.M.",
"M.m.B.g.b * * b h.V.B.v.w.*.>.>.>.>.*.w.z.N.m.M.M.M.M.M.M.M.M.M.M.M.M.M.M.m.N.z.w.*.>.>.>.>.*.w.v.B.V.h.b * * b g.B.m.M.M.M.M.M.",
"M.m.B.g.b * * b d.B.M.z.w.*.>.>.>.>.*.w.v.B.N.B.B.B.B.B.B.B.B.B.B.B.B.B.B.N.B.v.w.*.>.>.>.>.*.w.z.M.B.d.b * * b g.B.m.M.M.M.M.M.",
"M.m.B.g.b * * b g.B.M.c.u.0.r.e.e.r.q.u.f.v.z.x.x.x.x.x.x.x.x.x.x.x.x.x.x.z.v.f.u.q.r.e.e.r.0.u.c.M.B.g.b * * b g.B.m.M.M.M.M.M.",
"M.m.B.g.b * * b g.B.M.M.v.x.x.x.x.z.v.f.u.q.r.e.e.e.e.e.e.e.e.e.e.e.e.e.e.r.q.u.f.v.z.x.x.x.x.v.M.M.B.g.b * * b g.B.m.M.M.M.M.M.",
"M.m.B.g.b * * b d.B.n.M.B.B.B.B.B.N.B.v.w.*.>.>.>.>.>.>.>.>.>.>.>.>.>.>.>.>.*.w.v.B.N.B.B.B.B.B.M.n.B.d.b * * b g.B.m.M.M.M.M.M.",
"M.m.B.g.b * * b h.V.M.B.M.M.M.M.M.m.N.z.w.*.>.>.>.>.>.>.>.>.>.>.>.>.>.>.>.>.*.w.z.N.m.M.M.M.M.M.B.M.V.h.b * * b g.B.m.M.M.M.M.M.",
"M.m.B.g.b * - c a.b.z.v.M.M.M.M.M.M.B.c.u.0.r.e.e.e.e.e.e.e.e.e.e.e.e.e.e.r.0.u.c.B.M.M.M.M.M.M.v.z.b.a.c - * b g.B.m.M.M.M.M.M.",
"M.m.B.g.b % 3 d 2.y.9.u.c.B.M.M.M.M.M.M.v.x.x.x.x.x.x.x.x.x.x.x.x.x.x.x.x.x.x.v.M.M.M.M.M.M.B.c.u.9.y.2.d 3 % b g.B.m.M.M.M.M.M.",
"M.m.B.g.b % 3 s o.1.#.0.z.N.m.M.M.M.M.M.B.B.B.B.B.B.B.B.B.B.B.B.B.B.B.B.B.B.B.B.M.M.M.M.M.m.N.z.0.#.1.o.s 3 % b g.B.m.M.M.M.M.M.",
"M.m.B.g.b % 3 s %.8.<.t.v.B.N.B.B.B.B.B.M.M.M.M.M.M.M.M.M.M.M.M.M.M.M.M.M.M.M.M.B.B.B.B.B.N.B.v.t.<.8.%.s 3 % b g.B.m.M.M.M.M.M.",
"M.m.B.g.b % 4 s ..-.+.7.f.v.z.x.x.x.x.v.M.M.M.M.M.M.M.M.M.M.M.M.M.M.M.M.M.M.M.M.v.x.x.x.x.z.v.f.7.+.-...s 4 % b g.B.m.M.M.M.M.M.",
"M.m.B.g.b # 8 e Q ( Q ' 7.r.w.e.e.r.0.u.c.B.M.M.M.M.M.M.M.M.M.M.M.M.M.M.M.M.B.c.u.0.r.e.e.w.r.7.' Q ( Q e 8 # b g.B.m.M.M.M.M.M.",
"M.m.B.g.b @ 8 w H P H ! +.,.:.:.:.>.$.0.z.N.m.M.M.M.M.M.M.M.M.M.M.M.M.M.M.m.N.z.0.$.>.:.:.:.,.+.! H P H w 8 @ b g.B.m.M.M.M.M.M.",
"M.m.B.g.b @ 8 w K T P / =.6.4.4.4.4.<.t.v.B.N.B.B.B.B.B.B.B.B.B.B.B.B.B.B.N.B.v.t.<.4.4.4.4.6.=./ P T K w 8 @ b g.B.m.M.M.M.M.M.",
"M.m.B.g.b @ 8 w K T L / X.=.%.%.%.&.@.7.f.v.z.x.x.x.x.x.x.x.x.x.x.x.x.x.x.z.v.f.7.@.&.%.%.%.=.X./ L T K w 8 @ b g.B.m.M.M.M.M.M.",
"M.m.B.g.b @ 8 w K T U U / / / / / / ~ ' 7.r.w.e.e.e.e.e.e.e.e.e.e.e.e.e.e.w.r.7.' ~ / / / / / / U U T K w 8 @ b g.B.m.M.M.M.M.M.",
"M.m.B.g.b @ 8 w K T U U P P P P P P H ! +.,.:.:.:.:.:.:.:.:.:.:.:.:.:.:.:.:.,.+.! H P P P P P P U U T K w 8 @ b g.B.m.M.M.M.M.M.",
"M.m.B.g.b @ 8 w K T U U U U U U U T P / =.6.4.4.1.1.1.1.1.1.1.1.1.1.1.1.4.4.6.=./ P T U U U U U U U T K w 8 @ b g.B.m.M.M.M.M.M.",
"M.m.B.g.b @ 8 w K T U U U U U U U U P / X.=.%.%.1.1.1.1.1.1.1.1.1.1.1.1.%.%.=.X./ P U U U U U U U U T K w 8 @ b g.B.m.M.M.M.M.M.",
"M.m.B.g.b @ 8 w K T U U U U U U U U U U / / ^ ` %.4.1.1.1.1.1.1.1.1.4.%.` ^ / / U U U U U U U U U U T K w 8 @ b g.B.m.M.M.M.M.M.",
"M.m.B.g.b @ 8 w K T U U U U U U U U U U P P H ^ %.4.1.1.1.1.1.1.1.1.4.%.^ H P P U U U U U U U U U U T K w 8 @ b g.B.m.M.M.M.M.M.",
"M.m.B.g.b @ 8 w K T U U U U U U U U U U U T P / %.4.1.1.1.1.1.1.1.1.4.%./ P T U U U U U U U U U U U T K w 8 @ b g.B.m.M.M.M.M.M.",
"M.m.B.g.b @ 8 w K T U U U U U U U U U U U U P / %.4.1.1.1.1.1.1.1.1.4.%./ P U U U U U U U U U U U U T K w 8 @ b g.B.m.M.M.M.M.M.",
"M.m.B.g.b @ 8 w K T U U U U U U U U U U U U P / %.4.1.1.1.1.1.1.1.1.4.%./ P U U U U U U U U U U U U T K w 8 @ b g.B.m.M.M.M.M.M.",
"M.m.B.g.b # 9 w K U U U U U U U U U U U U U P / %.4.1.1.1.1.1.1.1.1.4.%./ P U U U U U U U U U U U U U K w 9 # b g.B.m.M.M.M.M.M.",
"M.m.B.g.c + 6 q K T U Y U U U U U U U U U U P / %.4.1.1.1.1.1.1.1.1.4.%./ P U U U U U U U U U U Y U T K q 6 + c g.B.m.M.M.M.M.M.",
"M.M.B.g.m > e y S K K K U U U U U U U U U U P / %.4.1.1.1.1.1.1.1.1.4.%./ P U U U U U U U U U U K K K S y e > m g.B.M.M.M.M.M.M.",
"M.M.B.h.] C I S y q q u K Y U U U U U U U U P / %.4.1.1.1.1.1.1.1.1.4.%./ P U U U U U U U U Y K u q q y S I C ] h.B.M.M.M.M.M.M.",
"M.M.B.j.| J Q P q 3 3 q K U U U U U U U U U P / %.4.1.1.1.1.1.1.1.1.4.%./ P U U U U U U U U U K q 3 3 q P Q J | j.B.M.M.M.M.M.M.",
"M.M.B.h.) B J Z q 3 3 q K T U T T T T Y U U P / %.4.1.1.1.1.1.1.1.1.4.%./ P U U Y T T T T U T K q 3 3 q Z J B ) h.B.M.M.M.M.M.M.",
"M.M.B.k. .) | _ i q q y S K K K K K K K U U P / %.4.1.1.1.1.1.1.1.1.4.%./ P U U K K K K K K K S y q q i _ | )  .k.B.M.M.M.M.M.M.",
"M.M.M.M.k.g.z.p._ Z P S y q w w w w q u K T K / %.4.1.1.1.1.1.1.1.1.4.%./ K T K u q w w w w q y S P Z _ p.z.g.k.M.M.M.M.M.M.M.M.",
"M.M.M.M.B.B.V.z.| J Q P q 3 5 5 5 5 3 q K T K / %.1.,.1.1.1.1.1.1.,.1.%./ K T K q 3 5 5 5 5 3 q P Q J | z.V.B.B.M.M.M.M.M.M.M.M.",
"M.M.M.M.M.n.B.g.) B J Z q 3 5 5 5 5 3 q K T P / =.6.4.4.4.4.4.4.4.4.6.=./ P T K q 3 5 5 5 5 3 q Z J B ) g.B.n.M.M.M.M.M.M.M.M.M.",
"M.M.M.M.M.M.B.k. .) | _ i 0 w w w w q y S P S Q ..%.@.@.@.@.@.@.@.@.%...Q S P S y q w w w w 0 i _ | )  .k.B.M.M.M.M.M.M.M.M.M.M.",
"M.M.M.M.M.M.M.M.k.g.z.p._ A P K K K K S y q w e s s s s s s s s s s s s e w q y S K K K K P A _ p.z.g.k.M.M.M.M.M.M.M.M.M.M.M.M.",
"M.M.M.M.M.M.M.M.B.B.V.z.| J W R R T E P q 3 5 5 , , , , , , , , , , , , 5 5 3 q P E T R R W J | z.V.B.B.M.M.M.M.M.M.M.M.M.M.M.M.",
"M.M.M.M.M.M.M.M.M.n.B.g.) V G F F F G Z q 3 5 5 6 6 6 6 6 6 6 6 6 6 6 6 5 5 3 q Z G F F F G V ) g.B.n.M.M.M.M.M.M.M.M.M.M.M.M.M.",
"M.M.M.M.M.M.M.M.M.M.B.k. .) } { { [ } _ i 0 w w w w w w w w w w w w w w w w 0 i _ } [ { { } )  .k.B.M.M.M.M.M.M.M.M.M.M.M.M.M.M.",
"M.M.M.M.M.M.M.M.M.M.M.M.k.h.j.j.j.g.z.p._ A P K K K K K K K K K K K K K K P A _ p.z.g.j.j.j.h.k.M.M.M.M.M.M.M.M.M.M.M.M.M.M.M.M.",
"M.M.M.M.M.M.M.M.M.M.M.M.B.B.B.B.B.B.V.z.} G R T T T T T T T T T T T T T T R G } z.V.B.B.B.B.B.B.M.M.M.M.M.M.M.M.M.M.M.M.M.M.M.M.",
"M.M.M.M.M.M.M.M.M.M.M.M.M.M.M.M.M.n.B.g.[ F T U U U U U U U U U U U U U U T F [ g.B.n.M.M.M.M.M.M.M.M.M.M.M.M.M.M.M.M.M.M.M.M.M."
};
